<?xml version="1.0" encoding="UTF-8" standalone="no"?>
<!-- Created with Inkscape (http://www.inkscape.org/) -->

<svg
   xmlns:dc="http://purl.org/dc/elements/1.1/"
   xmlns:cc="http://creativecommons.org/ns#"
   xmlns:rdf="http://www.w3.org/1999/02/22-rdf-syntax-ns#"
   xmlns:svg="http://www.w3.org/2000/svg"
   xmlns="http://www.w3.org/2000/svg"
   xmlns:sodipodi="http://sodipodi.sourceforge.net/DTD/sodipodi-0.dtd"
   xmlns:inkscape="http://www.inkscape.org/namespaces/inkscape"
   width="210mm"
   height="60mm"
   viewBox="0 0 168 47.999994"
   version="1.1"
   id="svg14337"
   inkscape:version="0.91 r13725"
   sodipodi:docname="after_FINAL.svg">
  <defs
     id="defs14331">
    <marker
       inkscape:stockid="Arrow1Mend"
       orient="auto"
       refY="0.0"
       refX="0.0"
       id="Arrow1Mend"
       style="overflow:visible;"
       inkscape:isstock="true">
      <path
         id="path5096"
         d="M 0.0,0.0 L 5.0,-5.0 L -12.5,0.0 L 5.0,5.0 L 0.0,0.0 z "
         style="fill-rule:evenodd;stroke:#000000;stroke-width:1pt;stroke-opacity:1;fill:#000000;fill-opacity:1"
         transform="scale(0.4) rotate(180) translate(10,0)" />
    </marker>
  </defs>
  <sodipodi:namedview
     id="base"
     pagecolor="#ffffff"
     bordercolor="#666666"
     borderopacity="1.0"
     inkscape:pageopacity="0.0"
     inkscape:pageshadow="2"
     inkscape:zoom="1.4"
     inkscape:cx="267.94387"
     inkscape:cy="66.411535"
     inkscape:document-units="mm"
     inkscape:current-layer="text8629"
     showgrid="false"
     scale-x="0.8"
     inkscape:window-width="1855"
     inkscape:window-height="1056"
     inkscape:window-x="65"
     inkscape:window-y="24"
     inkscape:window-maximized="1" />
  <metadata
     id="metadata14334">
    <rdf:RDF>
      <cc:Work
         rdf:about="">
        <dc:format>image/svg+xml</dc:format>
        <dc:type
           rdf:resource="http://purl.org/dc/dcmitype/StillImage" />
        <dc:title />
      </cc:Work>
    </rdf:RDF>
  </metadata>
  <g
     inkscape:label="Layer 1"
     inkscape:groupmode="layer"
     id="layer1"
     transform="translate(0,-189.6)">
    <path
       style="opacity:1;fill:#460000;fill-opacity:1;stroke:#070000;stroke-width:0.5;stroke-miterlimit:4;stroke-dasharray:none;stroke-opacity:1"
       d="m 21.34811,198.78764 9.999999,0 0,9.99999 -9.999999,0 z"
       id="rect4489"
       inkscape:connector-curvature="0" />
    <path
       style="opacity:1;fill:#640000;fill-opacity:1;stroke:#070000;stroke-width:0.5;stroke-miterlimit:4;stroke-dasharray:none;stroke-opacity:1"
       d="m 31.348114,198.78764 9.999999,0 0,9.99999 -9.999999,0 z"
       id="rect4489-8"
       inkscape:connector-curvature="0" />
    <path
       style="opacity:1;fill:#820000;fill-opacity:1;stroke:#070000;stroke-width:0.5;stroke-miterlimit:4;stroke-dasharray:none;stroke-opacity:1"
       d="m 41.34811,198.78764 9.999999,0 0,9.99999 -9.999999,0 z"
       id="rect4489-8-3"
       inkscape:connector-curvature="0" />
    <path
       style="opacity:1;fill:#a00000;fill-opacity:1;stroke:#070000;stroke-width:0.5;stroke-miterlimit:4;stroke-dasharray:none;stroke-opacity:1"
       d="m 51.348125,198.78764 9.999999,0 0,9.99999 -9.999999,0 z"
       id="rect4489-8-3-9"
       inkscape:connector-curvature="0" />
    <path
       style="opacity:1;fill:#be0000;fill-opacity:1;stroke:#070000;stroke-width:0.5;stroke-miterlimit:4;stroke-dasharray:none;stroke-opacity:1"
       d="m 61.348114,198.78764 9.999999,0 0,9.99999 -9.999999,0 z"
       id="rect4489-8-3-9-7"
       inkscape:connector-curvature="0" />
    <path
       style="opacity:1;fill:#dc0000;fill-opacity:1;stroke:#070000;stroke-width:0.5;stroke-miterlimit:4;stroke-dasharray:none;stroke-opacity:1"
       d="m 71.34811,198.78764 9.999999,0 0,9.99999 -9.999999,0 z"
       id="rect4489-8-3-9-7-5"
       inkscape:connector-curvature="0" />
    <path
       style="opacity:1;fill:#fa0000;fill-opacity:1;stroke:#070000;stroke-width:0.5;stroke-miterlimit:4;stroke-dasharray:none;stroke-opacity:1"
       d="m 81.348133,198.78764 9.999999,0 0,9.99999 -9.999999,0 z"
       id="rect4489-8-3-9-7-5-1"
       inkscape:connector-curvature="0" />
    <path
       style="opacity:1;fill:#ff1919;fill-opacity:1;stroke:#070000;stroke-width:0.5;stroke-miterlimit:4;stroke-dasharray:none;stroke-opacity:1"
       d="m 21.324769,218.41426 9.999997,0 0,9.99999 -9.999997,0 z"
       id="rect4489-8-3-9-7-5-1-1"
       inkscape:connector-curvature="0" />
    <path
       style="opacity:1;fill:#ff3737;fill-opacity:1;stroke:#070000;stroke-width:0.5;stroke-miterlimit:4;stroke-dasharray:none;stroke-opacity:1"
       d="m 31.324746,218.41426 10,0 0,9.99999 -10,0 z"
       id="rect4489-8-3-9-7-5-1-1-7"
       inkscape:connector-curvature="0" />
    <path
       style="opacity:1;fill:#ff5555;fill-opacity:1;stroke:#070000;stroke-width:0.5;stroke-miterlimit:4;stroke-dasharray:none;stroke-opacity:1"
       d="m 41.324746,218.41426 10,0 0,9.99999 -10,0 z"
       id="rect4489-8-3-9-7-5-1-1-7-3"
       inkscape:connector-curvature="0" />
    <path
       style="opacity:1;fill:#ff7373;fill-opacity:1;stroke:#070000;stroke-width:0.5;stroke-miterlimit:4;stroke-dasharray:none;stroke-opacity:1"
       d="m 51.324746,218.41426 10,0 0,9.99999 -10,0 z"
       id="rect4489-8-3-9-7-5-1-1-7-3-1"
       inkscape:connector-curvature="0" />
    <path
       style="opacity:1;fill:#ff9191;fill-opacity:1;stroke:#070000;stroke-width:0.5;stroke-miterlimit:4;stroke-dasharray:none;stroke-opacity:1"
       d="m 61.324676,218.41426 10,0 0,9.99999 -10,0 z"
       id="rect4489-8-3-9-7-5-1-1-7-3-1-0"
       inkscape:connector-curvature="0" />
    <path
       style="opacity:1;fill:#ffafaf;fill-opacity:1;stroke:#070000;stroke-width:0.5;stroke-miterlimit:4;stroke-dasharray:none;stroke-opacity:1"
       d="m 71.324616,218.41426 10,0 0,9.99999 -10,0 z"
       id="rect4489-8-3-9-7-5-1-1-7-3-1-0-9"
       inkscape:connector-curvature="0" />
    <path
       style="opacity:1;fill:#ffcdcd;fill-opacity:1;stroke:#070000;stroke-width:0.5;stroke-miterlimit:4;stroke-dasharray:none;stroke-opacity:1"
       d="m 81.324616,218.41426 10,0 0,9.99999 -10,0 z"
       id="rect4489-8-3-9-7-5-1-1-7-3-1-0-9-9"
       inkscape:connector-curvature="0" />
    <g
       aria-label="1"
       style="font-style:normal;font-weight:normal;font-size:10.58333302px;line-height:1.25;font-family:sans-serif;letter-spacing:0px;word-spacing:0px;fill:#000000;fill-opacity:1;stroke:none;stroke-width:0.26458332"
       id="text6086-2"
       transform="translate(-1.9352381,-2.5158236)">
      <path
         d="m 37.10826,198.33915 0.852661,0 0,-2.94298 -0.927592,0.18604 0,-0.47542 0.922424,-0.18604 0.521932,0 0,3.4184 0.852661,0 0,0.43925 -2.222086,0 z"
         style="font-size:5.29166651px;stroke-width:0.26458332"
         id="path5941"
         inkscape:connector-curvature="0" />
    </g>
    <g
       aria-label="2"
       style="font-style:normal;font-weight:normal;font-size:10.58333302px;line-height:1.25;font-family:sans-serif;letter-spacing:0px;word-spacing:0px;fill:#000000;fill-opacity:1;stroke:none;stroke-width:0.26458332"
       id="text6086-2-8"
       transform="translate(-1.9352381,-2.5158236)">
      <path
         d="m 47.467411,198.33915 1.821594,0 0,0.43925 -2.449463,0 0,-0.43925 q 0.29714,-0.30748 0.808737,-0.82424 0.51418,-0.51935 0.645955,-0.66921 0.250631,-0.28164 0.348816,-0.47543 0.100769,-0.19637 0.100769,-0.38498 0,-0.30748 -0.217041,-0.50127 -0.214457,-0.19378 -0.560689,-0.19378 -0.245463,0 -0.519349,0.0853 -0.271301,0.0853 -0.581359,0.25839 l 0,-0.5271 q 0.315226,-0.12661 0.589111,-0.19121 0.273885,-0.0646 0.501261,-0.0646 0.599447,0 0.956014,0.29972 0.356568,0.29972 0.356568,0.80099 0,0.23771 -0.09043,0.45216 -0.08785,0.21188 -0.322978,0.50127 -0.06459,0.0749 -0.410827,0.43408 -0.346233,0.35657 -0.976685,0.99994 z"
         style="font-size:5.29166651px;stroke-width:0.26458332"
         id="path5938"
         inkscape:connector-curvature="0" />
    </g>
    <g
       aria-label="..."
       style="font-style:normal;font-weight:normal;font-size:10.58333302px;line-height:1.25;font-family:sans-serif;letter-spacing:0px;word-spacing:0px;fill:#000000;fill-opacity:1;stroke:none;stroke-width:0.26458332"
       id="text6086-2-8-4"
       transform="translate(-1.9352381,-2.5158236)">
      <path
         d="m 56.533325,198.12211 0.545187,0 0,0.65629 -0.545187,0 z"
         style="font-size:5.29166651px;stroke-width:0.26458332"
         id="path5931"
         inkscape:connector-curvature="0" />
      <path
         d="m 58.217977,198.12211 0.545186,0 0,0.65629 -0.545186,0 z"
         style="font-size:5.29166651px;stroke-width:0.26458332"
         id="path5933"
         inkscape:connector-curvature="0" />
      <path
         d="m 59.902628,198.12211 0.545187,0 0,0.65629 -0.545187,0 z"
         style="font-size:5.29166651px;stroke-width:0.26458332"
         id="path5935"
         inkscape:connector-curvature="0" />
    </g>
    <g
       aria-label="t=0"
       style="font-style:normal;font-weight:normal;font-size:10.58333302px;line-height:1.25;font-family:sans-serif;letter-spacing:0px;word-spacing:0px;fill:#000000;fill-opacity:1;stroke:none;stroke-width:0.26458332"
       id="text6086-2-3"
       transform="translate(-1.9352381,-2.5158236)">
      <path
         d="m 20.860142,194.98793 0,0.82165 0.979268,0 0,0.36949 -0.979268,0 0,1.57096 q 0,0.35398 0.0956,0.45475 0.09819,0.10077 0.395325,0.10077 l 0.488342,0 0,0.39791 -0.488342,0 q -0.550354,0 -0.759644,-0.20412 -0.209289,-0.20671 -0.209289,-0.74931 l 0,-1.57096 -0.348816,0 0,-0.36949 0.348816,0 0,-0.82165 z"
         style="font-size:5.29166651px;stroke-width:0.26458332"
         id="path5924"
         inkscape:connector-curvature="0" />
      <path
         d="m 22.529291,196.30051 3.312459,0 0,0.43408 -3.312459,0 z m 0,1.0542 3.312459,0 0,0.43925 -3.312459,0 z"
         style="font-size:5.29166651px;stroke-width:0.26458332"
         id="path5926"
         inkscape:connector-curvature="0" />
      <path
         d="m 28.084507,195.18946 q -0.403076,0 -0.607198,0.39791 -0.201538,0.39533 -0.201538,1.19114 0,0.79324 0.201538,1.19115 0.204122,0.39532 0.607198,0.39532 0.40566,0 0.607198,-0.39532 0.204122,-0.39791 0.204122,-1.19115 0,-0.79581 -0.204122,-1.19114 -0.201538,-0.39791 -0.607198,-0.39791 z m 0,-0.41341 q 0.648539,0 0.989604,0.51418 0.343648,0.5116 0.343648,1.48828 0,0.9741 -0.343648,1.48828 -0.341065,0.5116 -0.989604,0.5116 -0.648539,0 -0.992188,-0.5116 -0.341064,-0.51418 -0.341064,-1.48828 0,-0.97668 0.341064,-1.48828 0.343649,-0.51418 0.992188,-0.51418 z"
         style="font-size:5.29166651px;stroke-width:0.26458332"
         id="path5928"
         inkscape:connector-curvature="0" />
    </g>
    <g
       aria-label="T-1"
       style="font-style:normal;font-weight:normal;font-size:10.58333302px;line-height:1.25;font-family:sans-serif;letter-spacing:0px;word-spacing:0px;fill:#000000;fill-opacity:1;stroke:none;stroke-width:0.26458332"
       id="text6086-2-3-3"
       transform="translate(-71.958602,17.110713)">
      <path
         d="m 154.34773,194.92075 3.26337,0 0,0.43925 -1.36943,0 0,3.4184 -0.52451,0 0,-3.4184 -1.36943,0 z"
         style="font-size:5.29166651px;stroke-width:0.26458332"
         id="path5917"
         inkscape:connector-curvature="0" />
      <path
         d="m 157.3708,197.117 1.39268,0 0,0.42375 -1.39268,0 z"
         style="font-size:5.29166651px;stroke-width:0.26458332"
         id="path5919"
         inkscape:connector-curvature="0" />
      <path
         d="m 159.68074,198.33915 0.85266,0 0,-2.94298 -0.92759,0.18604 0,-0.47542 0.92242,-0.18604 0.52194,0 0,3.4184 0.85266,0 0,0.43925 -2.22209,0 z"
         style="font-size:5.29166651px;stroke-width:0.26458332"
         id="path5921"
         inkscape:connector-curvature="0" />
    </g>
    <g
       aria-label="n=0"
       style="font-style:normal;font-weight:normal;font-size:10.58333302px;line-height:1.25;font-family:sans-serif;letter-spacing:0px;word-spacing:0px;fill:#000000;fill-opacity:1;stroke:none;stroke-width:0.26458332"
       id="text6086-2-3-5"
       transform="translate(-1.9352381,-2.5158236)">
      <path
         d="m 11.398612,206.95678 0,1.74667 -0.475424,0 0,-1.73116 q 0,-0.41083 -0.160196,-0.61495 -0.160197,-0.20413 -0.480591,-0.20413 -0.3849897,0 -0.6071983,0.24547 -0.2222087,0.24546 -0.2222087,0.66921 l 0,1.63556 -0.478007,0 0,-2.89388 0.478007,0 0,0.44958 q 0.1705322,-0.26097 0.4004923,-0.39016 0.2325437,-0.12919 0.5348507,-0.12919 0.498678,0 0.754476,0.31006 0.255799,0.30748 0.255799,0.90692 z"
         style="font-size:5.29166651px;stroke-width:0.26458332"
         id="path5962"
         inkscape:connector-curvature="0" />
      <path
         d="m 12.414054,206.30049 3.312459,0 0,0.43408 -3.312459,0 z m 0,1.0542 3.312459,0 0,0.43925 -3.312459,0 z"
         style="font-size:5.29166651px;stroke-width:0.26458332"
         id="path5964"
         inkscape:connector-curvature="0" />
      <path
         d="m 17.96927,205.18945 q -0.403076,0 -0.607198,0.39791 -0.201538,0.39532 -0.201538,1.19114 0,0.79323 0.201538,1.19114 0.204122,0.39532 0.607198,0.39532 0.40566,0 0.607198,-0.39532 0.204122,-0.39791 0.204122,-1.19114 0,-0.79582 -0.204122,-1.19114 -0.201538,-0.39791 -0.607198,-0.39791 z m 0,-0.41341 q 0.648539,0 0.989603,0.51418 0.343649,0.51159 0.343649,1.48828 0,0.9741 -0.343649,1.48828 -0.341064,0.5116 -0.989603,0.5116 -0.64854,0 -0.992188,-0.5116 -0.341064,-0.51418 -0.341064,-1.48828 0,-0.97669 0.341064,-1.48828 0.343648,-0.51418 0.992188,-0.51418 z"
         style="font-size:5.29166651px;stroke-width:0.26458332"
         id="path5966"
         inkscape:connector-curvature="0" />
    </g>
    <flowRoot
       xml:space="preserve"
       id="flowRoot5909"
       style="font-style:normal;font-weight:normal;font-size:40px;line-height:1.25;font-family:sans-serif;letter-spacing:0px;word-spacing:0px;fill:#000000;fill-opacity:1;stroke:none"><flowRegion
         id="flowRegion5911"><rect
           id="rect5913"
           width="864.28571"
           height="290"
           x="-67.14286"
           y="-27.514061" /></flowRegion><flowPara
         id="flowPara5915" /></flowRoot>    <g
       aria-label="n=0"
       style="font-style:normal;font-weight:normal;font-size:10.58333302px;line-height:1.25;font-family:sans-serif;letter-spacing:0px;word-spacing:0px;fill:#000000;fill-opacity:1;stroke:none;stroke-width:0.26458332"
       id="text6086-2-3-5-3"
       transform="translate(-1.9349871,16.308479)">
      <path
         d="m 11.398612,206.95678 0,1.74667 -0.475424,0 0,-1.73116 q 0,-0.41083 -0.160196,-0.61495 -0.160197,-0.20413 -0.480591,-0.20413 -0.3849897,0 -0.6071983,0.24547 -0.2222087,0.24546 -0.2222087,0.66921 l 0,1.63556 -0.478007,0 0,-2.89388 0.478007,0 0,0.44958 q 0.1705322,-0.26097 0.4004923,-0.39016 0.2325437,-0.12919 0.5348507,-0.12919 0.498678,0 0.754476,0.31006 0.255799,0.30748 0.255799,0.90692 z"
         style="font-size:5.29166651px;stroke-width:0.26458332"
         id="path5962-6"
         inkscape:connector-curvature="0" />
      <path
         d="m 12.414054,206.30049 3.312459,0 0,0.43408 -3.312459,0 z m 0,1.0542 3.312459,0 0,0.43925 -3.312459,0 z"
         style="font-size:5.29166651px;stroke-width:0.26458332"
         id="path5964-7"
         inkscape:connector-curvature="0" />
      <path
         d="m 17.96927,205.18945 q -0.403076,0 -0.607198,0.39791 -0.201538,0.39532 -0.201538,1.19114 0,0.79323 0.201538,1.19114 0.204122,0.39532 0.607198,0.39532 0.40566,0 0.607198,-0.39532 0.204122,-0.39791 0.204122,-1.19114 0,-0.79582 -0.204122,-1.19114 -0.201538,-0.39791 -0.607198,-0.39791 z m 0,-0.41341 q 0.648539,0 0.989603,0.51418 0.343649,0.51159 0.343649,1.48828 0,0.9741 -0.343649,1.48828 -0.341064,0.5116 -0.989603,0.5116 -0.64854,0 -0.992188,-0.5116 -0.341064,-0.51418 -0.341064,-1.48828 0,-0.97669 0.341064,-1.48828 0.343648,-0.51418 0.992188,-0.51418 z"
         style="font-size:5.29166651px;stroke-width:0.26458332"
         id="path5966-5"
         inkscape:connector-curvature="0" />
    </g>
    <path
       style="fill:none;stroke:#464646;stroke-width:1.07362676;stroke-linecap:round;stroke-linejoin:miter;stroke-miterlimit:4;stroke-dasharray:none;stroke-opacity:1"
       d="m 6.0374602,233.8552 91.4935158,0"
       id="path8559"
       inkscape:connector-curvature="0" />
    <g
       transform="matrix(0.79999993,0,0,0.80000002,2.182245,77.695967)"
       aria-label="reset"
       style="font-style:normal;font-weight:normal;font-size:10.58333302px;line-height:1.25;font-family:sans-serif;letter-spacing:0px;word-spacing:0px;fill:#464646;fill-opacity:1;stroke:none;stroke-width:0.26458332"
       id="text8629">
      <path
         inkscape:connector-curvature="0"
         d="m 123.11761,194.51446 q -0.12144,-0.0569 -0.24288,-0.0827 -0.11886,-0.0284 -0.2403,-0.0284 -0.35656,0 -0.55035,0.22996 -0.1912,0.22738 -0.1912,0.65371 l 0,1.33325 -0.92501,0 0,-2.89388 0.92501,0 0,0.47542 q 0.17828,-0.28422 0.40824,-0.41341 0.23255,-0.13177 0.55552,-0.13177 0.0465,0 0.10077,0.005 0.0543,0.003 0.15762,0.0155 z"
         style="font-style:normal;font-variant:normal;font-weight:bold;font-stretch:normal;font-size:5.29166651px;font-family:sans-serif;-inkscape-font-specification:'sans-serif Bold';fill:#464646;fill-opacity:1;stroke-width:0.26458332"
         id="path6823" />
      <path
         inkscape:connector-curvature="0"
         d="m 126.47141,195.16558 0,0.26355 -2.16266,0 q 0.0336,0.32556 0.23513,0.48834 0.20154,0.16278 0.56327,0.16278 0.29197,0 0.59686,-0.0853 0.30748,-0.0878 0.63046,-0.26354 l 0,0.71313 q -0.32815,0.12402 -0.65629,0.18604 -0.32815,0.0646 -0.65629,0.0646 -0.78549,0 -1.22215,-0.39791 -0.43408,-0.40049 -0.43408,-1.12138 0,-0.70796 0.42633,-1.11362 0.42891,-0.40566 1.17822,-0.40566 0.68213,0 1.09037,0.41082 0.41083,0.41083 0.41083,1.09813 z m -0.95085,-0.30748 q 0,-0.26355 -0.15503,-0.42374 -0.15244,-0.16278 -0.40049,-0.16278 -0.26872,0 -0.43666,0.15244 -0.16795,0.14986 -0.20929,0.43408 z"
         style="font-style:normal;font-variant:normal;font-weight:bold;font-stretch:normal;font-size:5.29166651px;font-family:sans-serif;-inkscape-font-specification:'sans-serif Bold';fill:#464646;fill-opacity:1;stroke-width:0.26458332"
         id="path6825" />
      <path
         inkscape:connector-curvature="0"
         d="m 129.42989,193.81682 0,0.7028 q -0.29714,-0.12402 -0.57361,-0.18603 -0.27647,-0.062 -0.52193,-0.062 -0.26355,0 -0.39275,0.0672 -0.1266,0.0646 -0.1266,0.20153 0,0.11111 0.0956,0.17054 0.0982,0.0594 0.34881,0.0879 l 0.16279,0.0233 q 0.71055,0.0904 0.95601,0.29714 0.24546,0.20671 0.24546,0.64854 0,0.4625 -0.34106,0.69505 -0.34107,0.23254 -1.01803,0.23254 -0.2868,0 -0.59428,-0.0465 -0.30489,-0.0439 -0.62787,-0.13436 l 0,-0.7028 q 0.27647,0.13436 0.56586,0.20154 0.29197,0.0672 0.5917,0.0672 0.2713,0 0.40824,-0.0749 0.13694,-0.0749 0.13694,-0.22221 0,-0.12402 -0.0956,-0.18345 -0.093,-0.062 -0.37465,-0.0956 l -0.16278,-0.0207 q -0.61754,-0.0775 -0.86558,-0.28681 -0.24805,-0.20929 -0.24805,-0.63562 0,-0.45992 0.31523,-0.68212 0.31522,-0.22221 0.96635,-0.22221 0.25579,0 0.53743,0.0387 0.28164,0.0388 0.61237,0.12144 z"
         style="font-style:normal;font-variant:normal;font-weight:bold;font-stretch:normal;font-size:5.29166651px;font-family:sans-serif;-inkscape-font-specification:'sans-serif Bold';fill:#464646;fill-opacity:1;stroke-width:0.26458332"
         id="path6827" />
      <path
         inkscape:connector-curvature="0"
         d="m 133.21002,195.16558 0,0.26355 -2.16266,0 q 0.0336,0.32556 0.23513,0.48834 0.20153,0.16278 0.56327,0.16278 0.29197,0 0.59686,-0.0853 0.30748,-0.0878 0.63045,-0.26354 l 0,0.71313 q -0.32814,0.12402 -0.65629,0.18604 -0.32814,0.0646 -0.65629,0.0646 -0.78548,0 -1.22215,-0.39791 -0.43408,-0.40049 -0.43408,-1.12138 0,-0.70796 0.42633,-1.11362 0.42892,-0.40566 1.17823,-0.40566 0.68212,0 1.09037,0.41082 0.41083,0.41083 0.41083,1.09813 z m -0.95085,-0.30748 q 0,-0.26355 -0.15503,-0.42374 -0.15244,-0.16278 -0.40049,-0.16278 -0.26872,0 -0.43667,0.15244 -0.16795,0.14986 -0.20929,0.43408 z"
         style="font-style:normal;font-variant:normal;font-weight:bold;font-stretch:normal;font-size:5.29166651px;font-family:sans-serif;-inkscape-font-specification:'sans-serif Bold';fill:#464646;fill-opacity:1;stroke-width:0.26458332"
         id="path6829" />
      <path
         inkscape:connector-curvature="0"
         d="m 134.91792,192.90473 0,0.82166 0.95343,0 0,0.66146 -0.95343,0 0,1.22731 q 0,0.20154 0.0801,0.27389 0.0801,0.0698 0.31781,0.0698 l 0.47542,0 0,0.66146 -0.79323,0 q -0.54777,0 -0.77773,-0.22738 -0.22738,-0.22996 -0.22738,-0.77773 l 0,-1.22731 -0.45992,0 0,-0.66146 0.45992,0 0,-0.82166 z"
         style="font-style:normal;font-variant:normal;font-weight:bold;font-stretch:normal;font-size:5.29166651px;font-family:sans-serif;-inkscape-font-specification:'sans-serif Bold';fill:#464646;fill-opacity:1;stroke-width:0.26458332"
         id="path6831" />
      <g
         transform="translate(2.8352979,-0.18895574)"
         style="font-style:normal;font-weight:normal;font-size:11.28888893px;line-height:125%;font-family:sans-serif;letter-spacing:0px;word-spacing:0px;fill:#000000;fill-opacity:1;stroke:none;stroke-width:1px;stroke-linecap:butt;stroke-linejoin:miter;stroke-opacity:1"
         id="flowRoot4257">
        <path
           d="m 121.0423,167.03176 0.44614,0 0,2.21623 1.32395,-1.16478 0.56672,0 -1.43247,1.26366 1.49276,1.43729 -0.57878,0 -1.37218,-1.31913 0,1.31913 -0.44614,0 0,-3.7524 z"
           style="font-style:normal;font-variant:normal;font-weight:normal;font-stretch:normal;font-size:4.93888903px;font-family:sans-serif;-inkscape-font-specification:sans-serif;fill:#464646;fill-opacity:1"
           id="path4563" />
        <path
           d="m 126.06077,169.32275 0,0.21704 -2.04018,0 q 0.0289,0.4582 0.27492,0.69936 0.24839,0.23874 0.6897,0.23874 0.25563,0 0.49437,-0.0627 0.24116,-0.0627 0.47749,-0.1881 l 0,0.41961 q -0.23874,0.10129 -0.48954,0.15434 -0.25081,0.0531 -0.50884,0.0531 -0.6463,0 -1.02492,-0.37621 -0.3762,-0.3762 -0.3762,-1.01768 0,-0.66318 0.35691,-1.05144 0.35932,-0.39068 0.96704,-0.39068 0.54501,0 0.86093,0.35209 0.31832,0.34968 0.31832,0.95257 z m -0.44373,-0.13022 q -0.005,-0.36415 -0.20498,-0.58119 -0.19775,-0.21704 -0.52572,-0.21704 -0.37138,0 -0.59566,0.20981 -0.22186,0.2098 -0.25562,0.59083 l 1.58198,-0.002 z"
           style="font-style:normal;font-variant:normal;font-weight:normal;font-stretch:normal;font-size:4.93888903px;font-family:sans-serif;-inkscape-font-specification:sans-serif;fill:#464646;fill-opacity:1"
           id="path4565" />
        <path
           d="m 129.09935,169.32275 0,0.21704 -2.04019,0 q 0.0289,0.4582 0.27492,0.69936 0.24839,0.23874 0.68971,0.23874 0.25562,0 0.49437,-0.0627 0.24116,-0.0627 0.47749,-0.1881 l 0,0.41961 q -0.23875,0.10129 -0.48955,0.15434 -0.2508,0.0531 -0.50884,0.0531 -0.6463,0 -1.02492,-0.37621 -0.3762,-0.3762 -0.3762,-1.01768 0,-0.66318 0.35691,-1.05144 0.35933,-0.39068 0.96704,-0.39068 0.54501,0 0.86093,0.35209 0.31833,0.34968 0.31833,0.95257 z m -0.44373,-0.13022 q -0.005,-0.36415 -0.20498,-0.58119 -0.19775,-0.21704 -0.52573,-0.21704 -0.37138,0 -0.59565,0.20981 -0.22187,0.2098 -0.25563,0.59083 l 1.58199,-0.002 z"
           style="font-style:normal;font-variant:normal;font-weight:normal;font-stretch:normal;font-size:4.93888903px;font-family:sans-serif;-inkscape-font-specification:sans-serif;fill:#464646;fill-opacity:1"
           id="path4567" />
        <path
           d="m 130.2569,170.37902 0,1.43247 -0.44614,0 0,-3.72828 0.44614,0 0,0.40996 q 0.13987,-0.24115 0.35209,-0.35691 0.21463,-0.11817 0.51125,-0.11817 0.49196,0 0.79823,0.39068 0.30868,0.39067 0.30868,1.02733 0,0.63665 -0.30868,1.02732 -0.30627,0.39068 -0.79823,0.39068 -0.29662,0 -0.51125,-0.11576 -0.21222,-0.11816 -0.35209,-0.35932 z m 1.50964,-0.94292 q 0,-0.48955 -0.20257,-0.76688 -0.20016,-0.27974 -0.55225,-0.27974 -0.35209,0 -0.55466,0.27974 -0.20016,0.27733 -0.20016,0.76688 0,0.48954 0.20016,0.76929 0.20257,0.27733 0.55466,0.27733 0.35209,0 0.55225,-0.27733 0.20257,-0.27975 0.20257,-0.76929 z"
           style="font-style:normal;font-variant:normal;font-weight:normal;font-stretch:normal;font-size:4.93888903px;font-family:sans-serif;-inkscape-font-specification:sans-serif;fill:#464646;fill-opacity:1"
           id="path4569" />
        <path
           d="m 136.25688,168.16279 0,0.41961 q -0.18811,-0.0965 -0.39068,-0.14469 -0.20257,-0.0482 -0.41961,-0.0482 -0.33038,0 -0.49678,0.10128 -0.16399,0.10129 -0.16399,0.30386 0,0.15434 0.11817,0.24357 0.11816,0.0868 0.47508,0.1664 l 0.15193,0.0338 q 0.47266,0.10128 0.67041,0.28697 0.20016,0.18328 0.20016,0.51367 0,0.3762 -0.29903,0.59565 -0.29663,0.21946 -0.81752,0.21946 -0.21705,0 -0.45338,-0.0434 -0.23392,-0.041 -0.49437,-0.1254 l 0,-0.4582 q 0.24598,0.12781 0.48472,0.19293 0.23875,0.0627 0.47267,0.0627 0.31351,0 0.48232,-0.10611 0.1688,-0.10852 0.1688,-0.30386 0,-0.18087 -0.12299,-0.27733 -0.12057,-0.0965 -0.53295,-0.18569 l -0.15434,-0.0362 q -0.41238,-0.0868 -0.59566,-0.26528 -0.18328,-0.18086 -0.18328,-0.49437 0,-0.38103 0.2701,-0.58842 0.27009,-0.2074 0.76688,-0.2074 0.24598,0 0.46302,0.0362 0.21704,0.0362 0.40032,0.10852 z"
           style="font-style:normal;font-variant:normal;font-weight:normal;font-stretch:normal;font-size:4.93888903px;font-family:sans-serif;-inkscape-font-specification:sans-serif;fill:#464646;fill-opacity:1"
           id="path4571" />
        <path
           d="m 137.54948,167.31633 0,0.76688 0.91398,0 0,0.34485 -0.91398,0 0,1.46623 q 0,0.33039 0.0892,0.42444 0.0916,0.0941 0.36896,0.0941 l 0.45579,0 0,0.37138 -0.45579,0 q -0.51366,0 -0.709,-0.19051 -0.19533,-0.19293 -0.19533,-0.69936 l 0,-1.46623 -0.32556,0 0,-0.34485 0.32556,0 0,-0.76688 0.44614,0 z"
           style="font-style:normal;font-variant:normal;font-weight:normal;font-stretch:normal;font-size:4.93888903px;font-family:sans-serif;-inkscape-font-specification:sans-serif;fill:#464646;fill-opacity:1"
           id="path4573" />
        <path
           d="m 140.27696,169.42645 q -0.53778,0 -0.74517,0.12299 -0.2074,0.12299 -0.2074,0.41961 0,0.23634 0.15434,0.37621 0.15675,0.13746 0.42444,0.13746 0.36897,0 0.59083,-0.26045 0.22428,-0.26286 0.22428,-0.69695 l 0,-0.0989 -0.44132,0 z m 0.88504,-0.18328 0,1.54099 -0.44372,0 0,-0.40996 q -0.15193,0.24598 -0.37862,0.36414 -0.22669,0.11576 -0.55466,0.11576 -0.41479,0 -0.66077,-0.23151 -0.24357,-0.23393 -0.24357,-0.6246 0,-0.45579 0.30386,-0.6873 0.30627,-0.23151 0.91157,-0.23151 l 0.62219,0 0,-0.0434 q 0,-0.30627 -0.20258,-0.47267 -0.20016,-0.16881 -0.5643,-0.16881 -0.23151,0 -0.45096,0.0555 -0.21946,0.0555 -0.42203,0.1664 l 0,-0.40996 q 0.24357,-0.094 0.47267,-0.13987 0.2291,-0.0482 0.44614,-0.0482 0.58601,0 0.8754,0.30386 0.28938,0.30386 0.28938,0.92122 z"
           style="font-style:normal;font-variant:normal;font-weight:normal;font-stretch:normal;font-size:4.93888903px;font-family:sans-serif;-inkscape-font-specification:sans-serif;fill:#464646;fill-opacity:1"
           id="path4575" />
        <path
           d="m 142.5173,167.31633 0,0.76688 0.91399,0 0,0.34485 -0.91399,0 0,1.46623 q 0,0.33039 0.0892,0.42444 0.0916,0.0941 0.36897,0.0941 l 0.45579,0 0,0.37138 -0.45579,0 q -0.51366,0 -0.709,-0.19051 -0.19534,-0.19293 -0.19534,-0.69936 l 0,-1.46623 -0.32556,0 0,-0.34485 0.32556,0 0,-0.76688 0.44614,0 z"
           style="font-style:normal;font-variant:normal;font-weight:normal;font-stretch:normal;font-size:4.93888903px;font-family:sans-serif;-inkscape-font-specification:sans-serif;fill:#464646;fill-opacity:1"
           id="path4577" />
        <path
           d="m 146.32758,169.32275 0,0.21704 -2.04019,0 q 0.0289,0.4582 0.27492,0.69936 0.24839,0.23874 0.68971,0.23874 0.25563,0 0.49437,-0.0627 0.24116,-0.0627 0.47749,-0.1881 l 0,0.41961 q -0.23874,0.10129 -0.48955,0.15434 -0.2508,0.0531 -0.50884,0.0531 -0.6463,0 -1.02491,-0.37621 -0.37621,-0.3762 -0.37621,-1.01768 0,-0.66318 0.35692,-1.05144 0.35932,-0.39068 0.96703,-0.39068 0.54502,0 0.86093,0.35209 0.31833,0.34968 0.31833,0.95257 z m -0.44373,-0.13022 q -0.005,-0.36415 -0.20498,-0.58119 -0.19775,-0.21704 -0.52572,-0.21704 -0.37138,0 -0.59566,0.20981 -0.22186,0.2098 -0.25563,0.59083 l 1.58199,-0.002 z"
           style="font-style:normal;font-variant:normal;font-weight:normal;font-stretch:normal;font-size:4.93888903px;font-family:sans-serif;-inkscape-font-specification:sans-serif;fill:#464646;fill-opacity:1"
           id="path4579" />
        <path
           d="m 148.77773,168.16279 0,0.41961 q -0.1881,-0.0965 -0.39067,-0.14469 -0.20257,-0.0482 -0.41961,-0.0482 -0.33039,0 -0.49679,0.10128 -0.16398,0.10129 -0.16398,0.30386 0,0.15434 0.11816,0.24357 0.11817,0.0868 0.47508,0.1664 l 0.15193,0.0338 q 0.47267,0.10128 0.67042,0.28697 0.20016,0.18328 0.20016,0.51367 0,0.3762 -0.29904,0.59565 -0.29662,0.21946 -0.81752,0.21946 -0.21704,0 -0.45337,-0.0434 -0.23393,-0.041 -0.49438,-0.1254 l 0,-0.4582 q 0.24598,0.12781 0.48473,0.19293 0.23874,0.0627 0.47267,0.0627 0.3135,0 0.48231,-0.10611 0.16881,-0.10852 0.16881,-0.30386 0,-0.18087 -0.12299,-0.27733 -0.12058,-0.0965 -0.53296,-0.18569 l -0.15434,-0.0362 q -0.41237,-0.0868 -0.59565,-0.26528 -0.18328,-0.18086 -0.18328,-0.49437 0,-0.38103 0.27009,-0.58842 0.2701,-0.2074 0.76688,-0.2074 0.24598,0 0.46302,0.0362 0.21704,0.0362 0.40032,0.10852 z"
           style="font-style:normal;font-variant:normal;font-weight:normal;font-stretch:normal;font-size:4.93888903px;font-family:sans-serif;-inkscape-font-specification:sans-serif;fill:#464646;fill-opacity:1"
           id="path4581" />
      </g>
      <path
         style="fill:none;fill-rule:evenodd;stroke:#000000;stroke-width:0.28200001;stroke-linecap:butt;stroke-linejoin:miter;stroke-opacity:1;stroke-miterlimit:4;stroke-dasharray:none;marker-end:url(#Arrow1Mend)"
         d="m 117.15149,156.68928 c 9.26535,13.11403 0,24.51753 0,24.51753"
         id="path5081"
         inkscape:connector-curvature="0" />
      <flowRoot
         xml:space="preserve"
         id="flowRoot4595"
         style="font-style:normal;font-weight:normal;font-size:40px;line-height:125%;font-family:sans-serif;letter-spacing:0px;word-spacing:0px;fill:#000000;fill-opacity:1;stroke:none;stroke-width:1px;stroke-linecap:butt;stroke-linejoin:miter;stroke-opacity:1"
         transform="matrix(0.28222224,0,0,0.28222221,-2.7278065,139.88004)"><flowRegion
           id="flowRegion4597"><rect
             id="rect4599"
             width="103.57143"
             height="40.714287"
             x="-1.4285715"
             y="70.455566" /></flowRegion><flowPara
           id="flowPara4601">piececddd</flowPara></flowRoot>      <g
         transform="matrix(0.28222224,0,0,0.28222221,-125.61543,154.63623)"
         style="font-style:normal;font-weight:normal;font-size:40px;line-height:125%;font-family:sans-serif;letter-spacing:0px;word-spacing:0px;fill:#000000;fill-opacity:1;stroke:none;stroke-width:1px;stroke-linecap:butt;stroke-linejoin:miter;stroke-opacity:1"
         id="flowRoot4603">
        <path
           d="m 466.06311,36.604715 0,3.988037 -1.24207,0 0,-10.379639 1.24207,0 0,1.141358 q 0.3894,-0.671387 0.98022,-0.993652 0.59754,-0.32898 1.42334,-0.32898 1.36963,0 2.22229,1.087647 0.85938,1.087646 0.85938,2.860107 0,1.772461 -0.85938,2.860107 -0.85266,1.087647 -2.22229,1.087647 -0.8258,0 -1.42334,-0.322266 -0.59082,-0.328979 -0.98022,-1.000366 z m 4.20288,-2.625122 q 0,-1.362915 -0.56396,-2.13501 -0.55725,-0.778808 -1.53748,-0.778808 -0.98022,0 -1.54419,0.778808 -0.55725,0.772095 -0.55725,2.13501 0,1.362915 0.55725,2.141724 0.56397,0.772094 1.54419,0.772094 0.98023,0 1.53748,-0.772094 0.56396,-0.778809 0.56396,-2.141724 z"
           style="font-size:13.75px"
           id="path4636" />
        <path
           d="m 473.59607,30.213113 1.23535,0 0,7.519532 -1.23535,0 0,-7.519532 z m 0,-2.927246 1.23535,0 0,1.564331 -1.23535,0 0,-1.564331 z"
           style="font-size:13.75px"
           id="path4638" />
        <path
           d="m 483.84143,33.664041 0,0.604248 -5.67993,0 q 0.0806,1.275635 0.76538,1.947022 0.69153,0.664673 1.92017,0.664673 0.71167,0 1.37634,-0.174561 0.67139,-0.174561 1.32934,-0.523682 l 0,1.168213 q -0.66467,0.281983 -1.36291,0.429688 -0.69824,0.147705 -1.41663,0.147705 -1.79931,0 -2.85339,-1.047363 -1.04736,-1.047364 -1.04736,-2.833252 0,-1.846314 0.99365,-2.927246 1.00037,-1.087647 2.69226,-1.087647 1.51733,0 2.39685,0.980225 0.88623,0.97351 0.88623,2.651977 z m -1.23535,-0.362549 q -0.0134,-1.013794 -0.57068,-1.618042 -0.55054,-0.604248 -1.46362,-0.604248 -1.03394,0 -1.65833,0.584107 -0.61767,0.584106 -0.71167,1.644897 l 4.4043,-0.0067 z"
           style="font-size:13.75px"
           id="path4640" />
        <path
           d="m 491.2804,30.50181 0,1.154785 q -0.52369,-0.288696 -1.05408,-0.429688 -0.52368,-0.147705 -1.06079,-0.147705 -1.20178,0 -1.86646,0.765381 -0.66467,0.758667 -0.66467,2.13501 0,1.376343 0.66467,2.141724 0.66468,0.758667 1.86646,0.758667 0.53711,0 1.06079,-0.140992 0.53039,-0.147705 1.05408,-0.436401 l 0,1.141357 q -0.51697,0.2417 -1.07422,0.362549 -0.55054,0.12085 -1.17493,0.12085 -1.69861,0 -2.69897,-1.067505 -1.00037,-1.067505 -1.00037,-2.880249 0,-1.8396 1.00708,-2.893677 1.01379,-1.054077 2.77283,-1.054077 0.57068,0 1.1145,0.12085 0.54382,0.114135 1.05408,0.349121 z"
           style="font-size:13.75px"
           id="path4642" />
        <path
           d="m 499.87415,33.664041 0,0.604248 -5.67994,0 q 0.0806,1.275635 0.76538,1.947022 0.69153,0.664673 1.92017,0.664673 0.71167,0 1.37634,-0.174561 0.67139,-0.174561 1.32935,-0.523682 l 0,1.168213 q -0.66467,0.281983 -1.36292,0.429688 -0.69824,0.147705 -1.41662,0.147705 -1.79932,0 -2.8534,-1.047363 -1.04736,-1.047364 -1.04736,-2.833252 0,-1.846314 0.99365,-2.927246 1.00037,-1.087647 2.69226,-1.087647 1.51734,0 2.39686,0.980225 0.88623,0.97351 0.88623,2.651977 z m -1.23536,-0.362549 q -0.0134,-1.013794 -0.57067,-1.618042 -0.55054,-0.604248 -1.46363,-0.604248 -1.03393,0 -1.65832,0.584107 -0.61768,0.584106 -0.71167,1.644897 l 4.40429,-0.0067 z"
           style="font-size:13.75px"
           id="path4644" />
        <path
           d="m 506.68872,36.591287 2.21558,0 0,-7.647094 -2.41028,0.483398 0,-1.235352 2.39685,-0.483398 1.3562,0 0,8.882446 2.21558,0 0,1.141358 -5.77393,0 0,-1.141358 z"
           style="font-size:13.75px"
           id="path4646" />
      </g>
      <g
         transform="translate(8.3154932,45.623305)"
         style="font-style:normal;font-weight:normal;font-size:11.28888893px;line-height:125%;font-family:sans-serif;letter-spacing:0px;word-spacing:0px;fill:#000000;fill-opacity:1;stroke:none;stroke-width:1px;stroke-linecap:butt;stroke-linejoin:miter;stroke-opacity:1"
         id="flowRoot4603-3">
        <path
           d="m -2.3771064,142.51055 0,1.12551 -0.3505385,0 0,-2.92936 0.3505385,0 0,0.32212 q 0.1098986,-0.18948 0.2766412,-0.28044 0.1686374,-0.0928 0.4016981,-0.0928 0.3865398,0 0.6271797,0.30696 0.24253471,0.30696 0.24253471,0.80718 0,0.50023 -0.24253471,0.80719 -0.2406399,0.30696 -0.6271797,0.30696 -0.2330607,0 -0.4016981,-0.0909 -0.1667426,-0.0928 -0.2766412,-0.28233 z m 1.1861464,-0.74087 q 0,-0.38464 -0.1591634,-0.60254 -0.1572686,-0.2198 -0.4339098,-0.2198 -0.2766412,0 -0.4358046,0.2198 -0.1572686,0.2179 -0.1572686,0.60254 0,0.38465 0.1572686,0.60445 0.1591634,0.2179 0.4358046,0.2179 0.2766412,0 0.4339098,-0.2179 0.1591634,-0.2198 0.1591634,-0.60445 z"
           style="font-size:3.88055563px"
           id="path4649" />
        <path
           d="m -0.25113799,140.7067 0.34864367,0 0,2.12218 -0.34864367,0 0,-2.12218 z m 0,-0.82613 0.34864367,0 0,0.44148 -0.34864367,0 0,-0.44148 z"
           style="font-size:3.88055563px"
           id="path4651" />
        <path
           d="m 2.6403308,141.68063 0,0.17053 -1.603003,0 q 0.022738,0.36001 0.2160075,0.54949 0.1951647,0.18759 0.5419136,0.18759 0.200849,0 0.3884345,-0.0493 0.1894802,-0.0493 0.3751709,-0.14779 l 0,0.32969 q -0.1875855,0.0796 -0.3846449,0.12127 -0.1970595,0.0417 -0.3998034,0.0417 -0.5078071,0 -0.80529106,-0.29559 -0.2955892,-0.29559 -0.2955892,-0.79961 0,-0.52107 0.28043078,-0.82613 0.28232558,-0.30696 0.75981578,-0.30696 0.4282254,0 0.6764446,0.27664 0.2501139,0.27475 0.2501139,0.74845 z m -0.3486437,-0.10232 q -0.00379,-0.28612 -0.1610582,-0.45665 -0.1553738,-0.17053 -0.413067,-0.17053 -0.2917995,0 -0.4680162,0.16485 -0.1743218,0.16484 -0.2008491,0.46422 l 1.2429905,-0.002 z"
           style="font-size:3.88055563px"
           id="path4653" />
        <path
           d="m 4.739772,140.78818 0,0.3259 q -0.1477946,-0.0815 -0.297484,-0.12127 -0.1477946,-0.0417 -0.2993788,-0.0417 -0.3391697,0 -0.5267551,0.21601 -0.1875855,0.21411 -0.1875855,0.60254 0,0.38844 0.1875855,0.60445 0.1875854,0.21411 0.5267551,0.21411 0.1515842,0 0.2993788,-0.0398 0.1496894,-0.0417 0.297484,-0.12316 l 0,0.32211 q -0.1458998,0.0682 -0.3031684,0.10232 -0.1553738,0.0341 -0.3315905,0.0341 -0.479385,0 -0.7617106,-0.30128 -0.2823256,-0.30127 -0.2823256,-0.81287 0,-0.51917 0.2842204,-0.81666 0.2861152,-0.29748 0.7825534,-0.29748 0.1610583,0 0.3145373,0.0341 0.153479,0.0322 0.297484,0.0985 z"
           style="font-size:3.88055563px"
           id="path4655" />
        <path
           d="m 7.1651192,141.68063 0,0.17053 -1.603003,0 q 0.022738,0.36001 0.2160075,0.54949 0.1951647,0.18759 0.5419135,0.18759 0.2008491,0 0.3884346,-0.0493 0.1894802,-0.0493 0.3751709,-0.14779 l 0,0.32969 q -0.1875855,0.0796 -0.384645,0.12127 -0.1970594,0.0417 -0.3998033,0.0417 -0.5078071,0 -0.8052911,-0.29559 -0.2955892,-0.29559 -0.2955892,-0.79961 0,-0.52107 0.2804308,-0.82613 0.2823256,-0.30696 0.7598158,-0.30696 0.4282254,0 0.6764445,0.27664 0.250114,0.27475 0.250114,0.74845 z m -0.3486437,-0.10232 q -0.00379,-0.28612 -0.1610582,-0.45665 -0.1553738,-0.17053 -0.413067,-0.17053 -0.2917996,0 -0.4680162,0.16485 -0.1743218,0.16484 -0.2008491,0.46422 l 1.2429905,-0.002 z"
           style="font-size:3.88055563px"
           id="path4657" />
        <path
           d="m 9.3517207,142.50676 1.3358353,0 0,0.32212 -1.7962723,0 0,-0.32212 q 0.2179023,-0.22548 0.5930732,-0.60444 0.3770657,-0.38086 0.4737006,-0.49075 0.1837955,-0.20654 0.2557985,-0.34865 0.0739,-0.144 0.0739,-0.28232 0,-0.22548 -0.159163,-0.3676 -0.1572689,-0.14211 -0.4111724,-0.14211 -0.1800063,0 -0.3808553,0.0625 -0.1989543,0.0625 -0.4263306,0.18948 l 0,-0.38654 q 0.2311659,-0.0928 0.432015,-0.14021 0.2008491,-0.0474 0.3675917,-0.0474 0.4395946,0 0.7010766,0.2198 0.261483,0.21979 0.261483,0.58738 0,0.17433 -0.06632,0.33159 -0.06442,0.15538 -0.23685,0.3676 -0.04737,0.0549 -0.301274,0.31832 -0.2539035,0.26149 -0.7162353,0.73329 z"
           style="font-size:3.88055563px"
           id="path4659" />
      </g>
    </g>
  </g>
</svg>
