<?xml version="1.0" encoding="UTF-8" standalone="no"?>
<!-- Created with Inkscape (http://www.inkscape.org/) -->

<svg
   xmlns:dc="http://purl.org/dc/elements/1.1/"
   xmlns:cc="http://creativecommons.org/ns#"
   xmlns:rdf="http://www.w3.org/1999/02/22-rdf-syntax-ns#"
   xmlns:svg="http://www.w3.org/2000/svg"
   xmlns="http://www.w3.org/2000/svg"
   xmlns:sodipodi="http://sodipodi.sourceforge.net/DTD/sodipodi-0.dtd"
   xmlns:inkscape="http://www.inkscape.org/namespaces/inkscape"
   width="210mm"
   height="60mm"
   viewBox="0 0 168 47.999994"
   version="1.1"
   id="svg14337"
   inkscape:version="0.91 r13725"
   sodipodi:docname="after_FINAL.svg">
  <defs
     id="defs14331">
    <marker
       inkscape:stockid="Arrow1Mend"
       orient="auto"
       refY="0.0"
       refX="0.0"
       id="Arrow1Mend"
       style="overflow:visible;"
       inkscape:isstock="true">
      <path
         id="path5096"
         d="M 0.0,0.0 L 5.0,-5.0 L -12.5,0.0 L 5.0,5.0 L 0.0,0.0 z "
         style="fill-rule:evenodd;stroke:#000000;stroke-width:1pt;stroke-opacity:1;fill:#000000;fill-opacity:1"
         transform="scale(0.4) rotate(180) translate(10,0)" />
    </marker>
  </defs>
  <sodipodi:namedview
     id="base"
     pagecolor="#ffffff"
     bordercolor="#666666"
     borderopacity="1.0"
     inkscape:pageopacity="0.0"
     inkscape:pageshadow="2"
     inkscape:zoom="1.4"
     inkscape:cx="373.65816"
     inkscape:cy="66.411535"
     inkscape:document-units="mm"
     inkscape:current-layer="text8629"
     showgrid="false"
     scale-x="0.8"
     inkscape:window-width="1855"
     inkscape:window-height="1056"
     inkscape:window-x="65"
     inkscape:window-y="24"
     inkscape:window-maximized="1" />
  <metadata
     id="metadata14334">
    <rdf:RDF>
      <cc:Work
         rdf:about="">
        <dc:format>image/svg+xml</dc:format>
        <dc:type
           rdf:resource="http://purl.org/dc/dcmitype/StillImage" />
        <dc:title></dc:title>
      </cc:Work>
    </rdf:RDF>
  </metadata>
  <g
     inkscape:label="Layer 1"
     inkscape:groupmode="layer"
     id="layer1"
     transform="translate(0,-189.6)">
    <path
       style="opacity:1;fill:#460000;fill-opacity:1;stroke:#070000;stroke-width:0.5;stroke-miterlimit:4;stroke-dasharray:none;stroke-opacity:1"
       d="m 21.34811,198.78764 9.999999,0 0,9.99999 -9.999999,0 z"
       id="rect4489"
       inkscape:connector-curvature="0" />
    <path
       style="opacity:1;fill:#640000;fill-opacity:1;stroke:#070000;stroke-width:0.5;stroke-miterlimit:4;stroke-dasharray:none;stroke-opacity:1"
       d="m 31.348114,198.78764 9.999999,0 0,9.99999 -9.999999,0 z"
       id="rect4489-8"
       inkscape:connector-curvature="0" />
    <path
       style="opacity:1;fill:#820000;fill-opacity:1;stroke:#070000;stroke-width:0.5;stroke-miterlimit:4;stroke-dasharray:none;stroke-opacity:1"
       d="m 41.34811,198.78764 9.999999,0 0,9.99999 -9.999999,0 z"
       id="rect4489-8-3"
       inkscape:connector-curvature="0" />
    <path
       style="opacity:1;fill:#a00000;fill-opacity:1;stroke:#070000;stroke-width:0.5;stroke-miterlimit:4;stroke-dasharray:none;stroke-opacity:1"
       d="m 51.348125,198.78764 9.999999,0 0,9.99999 -9.999999,0 z"
       id="rect4489-8-3-9"
       inkscape:connector-curvature="0" />
    <path
       style="opacity:1;fill:#be0000;fill-opacity:1;stroke:#070000;stroke-width:0.5;stroke-miterlimit:4;stroke-dasharray:none;stroke-opacity:1"
       d="m 61.348114,198.78764 9.999999,0 0,9.99999 -9.999999,0 z"
       id="rect4489-8-3-9-7"
       inkscape:connector-curvature="0" />
    <path
       style="opacity:1;fill:#dc0000;fill-opacity:1;stroke:#070000;stroke-width:0.5;stroke-miterlimit:4;stroke-dasharray:none;stroke-opacity:1"
       d="m 71.34811,198.78764 9.999999,0 0,9.99999 -9.999999,0 z"
       id="rect4489-8-3-9-7-5"
       inkscape:connector-curvature="0" />
    <path
       style="opacity:1;fill:#fa0000;fill-opacity:1;stroke:#070000;stroke-width:0.5;stroke-miterlimit:4;stroke-dasharray:none;stroke-opacity:1"
       d="m 81.348133,198.78764 9.999999,0 0,9.99999 -9.999999,0 z"
       id="rect4489-8-3-9-7-5-1"
       inkscape:connector-curvature="0" />
    <path
       style="opacity:1;fill:#ff1919;fill-opacity:1;stroke:#070000;stroke-width:0.5;stroke-miterlimit:4;stroke-dasharray:none;stroke-opacity:1"
       d="m 21.324769,218.41426 9.999997,0 0,9.99999 -9.999997,0 z"
       id="rect4489-8-3-9-7-5-1-1"
       inkscape:connector-curvature="0" />
    <path
       style="opacity:1;fill:#ff3737;fill-opacity:1;stroke:#070000;stroke-width:0.5;stroke-miterlimit:4;stroke-dasharray:none;stroke-opacity:1"
       d="m 31.324746,218.41426 10,0 0,9.99999 -10,0 z"
       id="rect4489-8-3-9-7-5-1-1-7"
       inkscape:connector-curvature="0" />
    <path
       style="opacity:1;fill:#ff5555;fill-opacity:1;stroke:#070000;stroke-width:0.5;stroke-miterlimit:4;stroke-dasharray:none;stroke-opacity:1"
       d="m 41.324746,218.41426 10,0 0,9.99999 -10,0 z"
       id="rect4489-8-3-9-7-5-1-1-7-3"
       inkscape:connector-curvature="0" />
    <path
       style="opacity:1;fill:#ff7373;fill-opacity:1;stroke:#070000;stroke-width:0.5;stroke-miterlimit:4;stroke-dasharray:none;stroke-opacity:1"
       d="m 51.324746,218.41426 10,0 0,9.99999 -10,0 z"
       id="rect4489-8-3-9-7-5-1-1-7-3-1"
       inkscape:connector-curvature="0" />
    <path
       style="opacity:1;fill:#ff9191;fill-opacity:1;stroke:#070000;stroke-width:0.5;stroke-miterlimit:4;stroke-dasharray:none;stroke-opacity:1"
       d="m 61.324676,218.41426 10,0 0,9.99999 -10,0 z"
       id="rect4489-8-3-9-7-5-1-1-7-3-1-0"
       inkscape:connector-curvature="0" />
    <path
       style="opacity:1;fill:#ffafaf;fill-opacity:1;stroke:#070000;stroke-width:0.5;stroke-miterlimit:4;stroke-dasharray:none;stroke-opacity:1"
       d="m 71.324616,218.41426 10,0 0,9.99999 -10,0 z"
       id="rect4489-8-3-9-7-5-1-1-7-3-1-0-9"
       inkscape:connector-curvature="0" />
    <path
       style="opacity:1;fill:#ffcdcd;fill-opacity:1;stroke:#070000;stroke-width:0.5;stroke-miterlimit:4;stroke-dasharray:none;stroke-opacity:1"
       d="m 81.324616,218.41426 10,0 0,9.99999 -10,0 z"
       id="rect4489-8-3-9-7-5-1-1-7-3-1-0-9-9"
       inkscape:connector-curvature="0" />
    <g
       aria-label="1"
       style="font-style:normal;font-weight:normal;font-size:10.58333302px;line-height:1.25;font-family:sans-serif;letter-spacing:0px;word-spacing:0px;fill:#000000;fill-opacity:1;stroke:none;stroke-width:0.26458332"
       id="text6086-2"
       transform="translate(-1.9352381,-2.5158236)">
      <path
         d="m 37.10826,198.33915 0.852661,0 0,-2.94298 -0.927592,0.18604 0,-0.47542 0.922424,-0.18604 0.521932,0 0,3.4184 0.852661,0 0,0.43925 -2.222086,0 z"
         style="font-size:5.29166651px;stroke-width:0.26458332"
         id="path5941"
         inkscape:connector-curvature="0" />
    </g>
    <g
       aria-label="2"
       style="font-style:normal;font-weight:normal;font-size:10.58333302px;line-height:1.25;font-family:sans-serif;letter-spacing:0px;word-spacing:0px;fill:#000000;fill-opacity:1;stroke:none;stroke-width:0.26458332"
       id="text6086-2-8"
       transform="translate(-1.9352381,-2.5158236)">
      <path
         d="m 47.467411,198.33915 1.821594,0 0,0.43925 -2.449463,0 0,-0.43925 q 0.29714,-0.30748 0.808737,-0.82424 0.51418,-0.51935 0.645955,-0.66921 0.250631,-0.28164 0.348816,-0.47543 0.100769,-0.19637 0.100769,-0.38498 0,-0.30748 -0.217041,-0.50127 -0.214457,-0.19378 -0.560689,-0.19378 -0.245463,0 -0.519349,0.0853 -0.271301,0.0853 -0.581359,0.25839 l 0,-0.5271 q 0.315226,-0.12661 0.589111,-0.19121 0.273885,-0.0646 0.501261,-0.0646 0.599447,0 0.956014,0.29972 0.356568,0.29972 0.356568,0.80099 0,0.23771 -0.09043,0.45216 -0.08785,0.21188 -0.322978,0.50127 -0.06459,0.0749 -0.410827,0.43408 -0.346233,0.35657 -0.976685,0.99994 z"
         style="font-size:5.29166651px;stroke-width:0.26458332"
         id="path5938"
         inkscape:connector-curvature="0" />
    </g>
    <g
       aria-label="..."
       style="font-style:normal;font-weight:normal;font-size:10.58333302px;line-height:1.25;font-family:sans-serif;letter-spacing:0px;word-spacing:0px;fill:#000000;fill-opacity:1;stroke:none;stroke-width:0.26458332"
       id="text6086-2-8-4"
       transform="translate(-1.9352381,-2.5158236)">
      <path
         d="m 56.533325,198.12211 0.545187,0 0,0.65629 -0.545187,0 z"
         style="font-size:5.29166651px;stroke-width:0.26458332"
         id="path5931"
         inkscape:connector-curvature="0" />
      <path
         d="m 58.217977,198.12211 0.545186,0 0,0.65629 -0.545186,0 z"
         style="font-size:5.29166651px;stroke-width:0.26458332"
         id="path5933"
         inkscape:connector-curvature="0" />
      <path
         d="m 59.902628,198.12211 0.545187,0 0,0.65629 -0.545187,0 z"
         style="font-size:5.29166651px;stroke-width:0.26458332"
         id="path5935"
         inkscape:connector-curvature="0" />
    </g>
    <g
       aria-label="t=0"
       style="font-style:normal;font-weight:normal;font-size:10.58333302px;line-height:1.25;font-family:sans-serif;letter-spacing:0px;word-spacing:0px;fill:#000000;fill-opacity:1;stroke:none;stroke-width:0.26458332"
       id="text6086-2-3"
       transform="translate(-1.9352381,-2.5158236)">
      <path
         d="m 20.860142,194.98793 0,0.82165 0.979268,0 0,0.36949 -0.979268,0 0,1.57096 q 0,0.35398 0.0956,0.45475 0.09819,0.10077 0.395325,0.10077 l 0.488342,0 0,0.39791 -0.488342,0 q -0.550354,0 -0.759644,-0.20412 -0.209289,-0.20671 -0.209289,-0.74931 l 0,-1.57096 -0.348816,0 0,-0.36949 0.348816,0 0,-0.82165 z"
         style="font-size:5.29166651px;stroke-width:0.26458332"
         id="path5924"
         inkscape:connector-curvature="0" />
      <path
         d="m 22.529291,196.30051 3.312459,0 0,0.43408 -3.312459,0 z m 0,1.0542 3.312459,0 0,0.43925 -3.312459,0 z"
         style="font-size:5.29166651px;stroke-width:0.26458332"
         id="path5926"
         inkscape:connector-curvature="0" />
      <path
         d="m 28.084507,195.18946 q -0.403076,0 -0.607198,0.39791 -0.201538,0.39533 -0.201538,1.19114 0,0.79324 0.201538,1.19115 0.204122,0.39532 0.607198,0.39532 0.40566,0 0.607198,-0.39532 0.204122,-0.39791 0.204122,-1.19115 0,-0.79581 -0.204122,-1.19114 -0.201538,-0.39791 -0.607198,-0.39791 z m 0,-0.41341 q 0.648539,0 0.989604,0.51418 0.343648,0.5116 0.343648,1.48828 0,0.9741 -0.343648,1.48828 -0.341065,0.5116 -0.989604,0.5116 -0.648539,0 -0.992188,-0.5116 -0.341064,-0.51418 -0.341064,-1.48828 0,-0.97668 0.341064,-1.48828 0.343649,-0.51418 0.992188,-0.51418 z"
         style="font-size:5.29166651px;stroke-width:0.26458332"
         id="path5928"
         inkscape:connector-curvature="0" />
    </g>
    <g
       aria-label="T-1"
       style="font-style:normal;font-weight:normal;font-size:10.58333302px;line-height:1.25;font-family:sans-serif;letter-spacing:0px;word-spacing:0px;fill:#000000;fill-opacity:1;stroke:none;stroke-width:0.26458332"
       id="text6086-2-3-3"
       transform="translate(-71.958602,17.110713)">
      <path
         d="m 154.34773,194.92075 3.26337,0 0,0.43925 -1.36943,0 0,3.4184 -0.52451,0 0,-3.4184 -1.36943,0 z"
         style="font-size:5.29166651px;stroke-width:0.26458332"
         id="path5917"
         inkscape:connector-curvature="0" />
      <path
         d="m 157.3708,197.117 1.39268,0 0,0.42375 -1.39268,0 z"
         style="font-size:5.29166651px;stroke-width:0.26458332"
         id="path5919"
         inkscape:connector-curvature="0" />
      <path
         d="m 159.68074,198.33915 0.85266,0 0,-2.94298 -0.92759,0.18604 0,-0.47542 0.92242,-0.18604 0.52194,0 0,3.4184 0.85266,0 0,0.43925 -2.22209,0 z"
         style="font-size:5.29166651px;stroke-width:0.26458332"
         id="path5921"
         inkscape:connector-curvature="0" />
    </g>
    <g
       aria-label="n=0"
       style="font-style:normal;font-weight:normal;font-size:10.58333302px;line-height:1.25;font-family:sans-serif;letter-spacing:0px;word-spacing:0px;fill:#000000;fill-opacity:1;stroke:none;stroke-width:0.26458332"
       id="text6086-2-3-5"
       transform="translate(-1.9352381,-2.5158236)">
      <path
         d="m 11.398612,206.95678 0,1.74667 -0.475424,0 0,-1.73116 q 0,-0.41083 -0.160196,-0.61495 -0.160197,-0.20413 -0.480591,-0.20413 -0.3849897,0 -0.6071983,0.24547 -0.2222087,0.24546 -0.2222087,0.66921 l 0,1.63556 -0.478007,0 0,-2.89388 0.478007,0 0,0.44958 q 0.1705322,-0.26097 0.4004923,-0.39016 0.2325437,-0.12919 0.5348507,-0.12919 0.498678,0 0.754476,0.31006 0.255799,0.30748 0.255799,0.90692 z"
         style="font-size:5.29166651px;stroke-width:0.26458332"
         id="path5962"
         inkscape:connector-curvature="0" />
      <path
         d="m 12.414054,206.30049 3.312459,0 0,0.43408 -3.312459,0 z m 0,1.0542 3.312459,0 0,0.43925 -3.312459,0 z"
         style="font-size:5.29166651px;stroke-width:0.26458332"
         id="path5964"
         inkscape:connector-curvature="0" />
      <path
         d="m 17.96927,205.18945 q -0.403076,0 -0.607198,0.39791 -0.201538,0.39532 -0.201538,1.19114 0,0.79323 0.201538,1.19114 0.204122,0.39532 0.607198,0.39532 0.40566,0 0.607198,-0.39532 0.204122,-0.39791 0.204122,-1.19114 0,-0.79582 -0.204122,-1.19114 -0.201538,-0.39791 -0.607198,-0.39791 z m 0,-0.41341 q 0.648539,0 0.989603,0.51418 0.343649,0.51159 0.343649,1.48828 0,0.9741 -0.343649,1.48828 -0.341064,0.5116 -0.989603,0.5116 -0.64854,0 -0.992188,-0.5116 -0.341064,-0.51418 -0.341064,-1.48828 0,-0.97669 0.341064,-1.48828 0.343648,-0.51418 0.992188,-0.51418 z"
         style="font-size:5.29166651px;stroke-width:0.26458332"
         id="path5966"
         inkscape:connector-curvature="0" />
    </g>
    <flowRoot
       xml:space="preserve"
       id="flowRoot5909"
       style="font-style:normal;font-weight:normal;font-size:40px;line-height:1.25;font-family:sans-serif;letter-spacing:0px;word-spacing:0px;fill:#000000;fill-opacity:1;stroke:none"><flowRegion
         id="flowRegion5911"><rect
           id="rect5913"
           width="864.28571"
           height="290"
           x="-67.14286"
           y="-27.514061" /></flowRegion><flowPara
         id="flowPara5915" /></flowRoot>    <g
       aria-label="n=0"
       style="font-style:normal;font-weight:normal;font-size:10.58333302px;line-height:1.25;font-family:sans-serif;letter-spacing:0px;word-spacing:0px;fill:#000000;fill-opacity:1;stroke:none;stroke-width:0.26458332"
       id="text6086-2-3-5-3"
       transform="translate(-1.9349871,16.308479)">
      <path
         d="m 11.398612,206.95678 0,1.74667 -0.475424,0 0,-1.73116 q 0,-0.41083 -0.160196,-0.61495 -0.160197,-0.20413 -0.480591,-0.20413 -0.3849897,0 -0.6071983,0.24547 -0.2222087,0.24546 -0.2222087,0.66921 l 0,1.63556 -0.478007,0 0,-2.89388 0.478007,0 0,0.44958 q 0.1705322,-0.26097 0.4004923,-0.39016 0.2325437,-0.12919 0.5348507,-0.12919 0.498678,0 0.754476,0.31006 0.255799,0.30748 0.255799,0.90692 z"
         style="font-size:5.29166651px;stroke-width:0.26458332"
         id="path5962-6"
         inkscape:connector-curvature="0" />
      <path
         d="m 12.414054,206.30049 3.312459,0 0,0.43408 -3.312459,0 z m 0,1.0542 3.312459,0 0,0.43925 -3.312459,0 z"
         style="font-size:5.29166651px;stroke-width:0.26458332"
         id="path5964-7"
         inkscape:connector-curvature="0" />
      <path
         d="m 17.96927,205.18945 q -0.403076,0 -0.607198,0.39791 -0.201538,0.39532 -0.201538,1.19114 0,0.79323 0.201538,1.19114 0.204122,0.39532 0.607198,0.39532 0.40566,0 0.607198,-0.39532 0.204122,-0.39791 0.204122,-1.19114 0,-0.79582 -0.204122,-1.19114 -0.201538,-0.39791 -0.607198,-0.39791 z m 0,-0.41341 q 0.648539,0 0.989603,0.51418 0.343649,0.51159 0.343649,1.48828 0,0.9741 -0.343649,1.48828 -0.341064,0.5116 -0.989603,0.5116 -0.64854,0 -0.992188,-0.5116 -0.341064,-0.51418 -0.341064,-1.48828 0,-0.97669 0.341064,-1.48828 0.343648,-0.51418 0.992188,-0.51418 z"
         style="font-size:5.29166651px;stroke-width:0.26458332"
         id="path5966-5"
         inkscape:connector-curvature="0" />
    </g>
    <path
       style="fill:none;stroke:#464646;stroke-width:1.07362676;stroke-linecap:round;stroke-linejoin:miter;stroke-miterlimit:4;stroke-dasharray:none;stroke-opacity:1"
       d="m 6.0374602,233.8552 91.4935158,0"
       id="path8559"
       inkscape:connector-curvature="0" />
    <g
       transform="matrix(0.79999993,0,0,0.80000002,2.182245,77.695967)"
       aria-label="reset"
       style="font-style:normal;font-weight:normal;font-size:10.58333302px;line-height:1.25;font-family:sans-serif;letter-spacing:0px;word-spacing:0px;fill:#464646;fill-opacity:1;stroke:none;stroke-width:0.26458332"
       id="text8629">
      <path
         inkscape:connector-curvature="0"
         d="m 123.11761,194.51446 q -0.12144,-0.0569 -0.24288,-0.0827 -0.11886,-0.0284 -0.2403,-0.0284 -0.35656,0 -0.55035,0.22996 -0.1912,0.22738 -0.1912,0.65371 l 0,1.33325 -0.92501,0 0,-2.89388 0.92501,0 0,0.47542 q 0.17828,-0.28422 0.40824,-0.41341 0.23255,-0.13177 0.55552,-0.13177 0.0465,0 0.10077,0.005 0.0543,0.003 0.15762,0.0155 z"
         style="font-style:normal;font-variant:normal;font-weight:bold;font-stretch:normal;font-size:5.29166651px;font-family:sans-serif;-inkscape-font-specification:'sans-serif Bold';fill:#464646;fill-opacity:1;stroke-width:0.26458332"
         id="path6823" />
      <path
         inkscape:connector-curvature="0"
         d="m 126.47141,195.16558 0,0.26355 -2.16266,0 q 0.0336,0.32556 0.23513,0.48834 0.20154,0.16278 0.56327,0.16278 0.29197,0 0.59686,-0.0853 0.30748,-0.0878 0.63046,-0.26354 l 0,0.71313 q -0.32815,0.12402 -0.65629,0.18604 -0.32815,0.0646 -0.65629,0.0646 -0.78549,0 -1.22215,-0.39791 -0.43408,-0.40049 -0.43408,-1.12138 0,-0.70796 0.42633,-1.11362 0.42891,-0.40566 1.17822,-0.40566 0.68213,0 1.09037,0.41082 0.41083,0.41083 0.41083,1.09813 z m -0.95085,-0.30748 q 0,-0.26355 -0.15503,-0.42374 -0.15244,-0.16278 -0.40049,-0.16278 -0.26872,0 -0.43666,0.15244 -0.16795,0.14986 -0.20929,0.43408 z"
         style="font-style:normal;font-variant:normal;font-weight:bold;font-stretch:normal;font-size:5.29166651px;font-family:sans-serif;-inkscape-font-specification:'sans-serif Bold';fill:#464646;fill-opacity:1;stroke-width:0.26458332"
         id="path6825" />
      <path
         inkscape:connector-curvature="0"
         d="m 129.42989,193.81682 0,0.7028 q -0.29714,-0.12402 -0.57361,-0.18603 -0.27647,-0.062 -0.52193,-0.062 -0.26355,0 -0.39275,0.0672 -0.1266,0.0646 -0.1266,0.20153 0,0.11111 0.0956,0.17054 0.0982,0.0594 0.34881,0.0879 l 0.16279,0.0233 q 0.71055,0.0904 0.95601,0.29714 0.24546,0.20671 0.24546,0.64854 0,0.4625 -0.34106,0.69505 -0.34107,0.23254 -1.01803,0.23254 -0.2868,0 -0.59428,-0.0465 -0.30489,-0.0439 -0.62787,-0.13436 l 0,-0.7028 q 0.27647,0.13436 0.56586,0.20154 0.29197,0.0672 0.5917,0.0672 0.2713,0 0.40824,-0.0749 0.13694,-0.0749 0.13694,-0.22221 0,-0.12402 -0.0956,-0.18345 -0.093,-0.062 -0.37465,-0.0956 l -0.16278,-0.0207 q -0.61754,-0.0775 -0.86558,-0.28681 -0.24805,-0.20929 -0.24805,-0.63562 0,-0.45992 0.31523,-0.68212 0.31522,-0.22221 0.96635,-0.22221 0.25579,0 0.53743,0.0387 0.28164,0.0388 0.61237,0.12144 z"
         style="font-style:normal;font-variant:normal;font-weight:bold;font-stretch:normal;font-size:5.29166651px;font-family:sans-serif;-inkscape-font-specification:'sans-serif Bold';fill:#464646;fill-opacity:1;stroke-width:0.26458332"
         id="path6827" />
      <path
         inkscape:connector-curvature="0"
         d="m 133.21002,195.16558 0,0.26355 -2.16266,0 q 0.0336,0.32556 0.23513,0.48834 0.20153,0.16278 0.56327,0.16278 0.29197,0 0.59686,-0.0853 0.30748,-0.0878 0.63045,-0.26354 l 0,0.71313 q -0.32814,0.12402 -0.65629,0.18604 -0.32814,0.0646 -0.65629,0.0646 -0.78548,0 -1.22215,-0.39791 -0.43408,-0.40049 -0.43408,-1.12138 0,-0.70796 0.42633,-1.11362 0.42892,-0.40566 1.17823,-0.40566 0.68212,0 1.09037,0.41082 0.41083,0.41083 0.41083,1.09813 z m -0.95085,-0.30748 q 0,-0.26355 -0.15503,-0.42374 -0.15244,-0.16278 -0.40049,-0.16278 -0.26872,0 -0.43667,0.15244 -0.16795,0.14986 -0.20929,0.43408 z"
         style="font-style:normal;font-variant:normal;font-weight:bold;font-stretch:normal;font-size:5.29166651px;font-family:sans-serif;-inkscape-font-specification:'sans-serif Bold';fill:#464646;fill-opacity:1;stroke-width:0.26458332"
         id="path6829" />
      <path
         inkscape:connector-curvature="0"
         d="m 134.91792,192.90473 0,0.82166 0.95343,0 0,0.66146 -0.95343,0 0,1.22731 q 0,0.20154 0.0801,0.27389 0.0801,0.0698 0.31781,0.0698 l 0.47542,0 0,0.66146 -0.79323,0 q -0.54777,0 -0.77773,-0.22738 -0.22738,-0.22996 -0.22738,-0.77773 l 0,-1.22731 -0.45992,0 0,-0.66146 0.45992,0 0,-0.82166 z"
         style="font-style:normal;font-variant:normal;font-weight:bold;font-stretch:normal;font-size:5.29166651px;font-family:sans-serif;-inkscape-font-specification:'sans-serif Bold';fill:#464646;fill-opacity:1;stroke-width:0.26458332"
         id="path6831" />
      <flowRoot
         xml:space="preserve"
         id="flowRoot4257"
         style="font-style:normal;font-weight:normal;font-size:11.28888893px;line-height:125%;font-family:sans-serif;letter-spacing:0px;word-spacing:0px;fill:#000000;fill-opacity:1;stroke:none;stroke-width:1px;stroke-linecap:butt;stroke-linejoin:miter;stroke-opacity:1"
         transform="translate(2.8352979,-0.18895574)"><flowRegion
           id="flowRegion4259"><rect
             id="rect4261"
             width="73.377785"
             height="15.119041"
             x="120.59324"
             y="165.86218" /></flowRegion><flowPara
           id="flowPara4263"
           style="font-style:normal;font-variant:normal;font-weight:normal;font-stretch:normal;font-size:4.93888903px;font-family:sans-serif;-inkscape-font-specification:sans-serif;fill:#464646;fill-opacity:1">keep states</flowPara></flowRoot>      <path
         style="fill:none;fill-rule:evenodd;stroke:#000000;stroke-width:0.28200001;stroke-linecap:butt;stroke-linejoin:miter;stroke-opacity:1;stroke-miterlimit:4;stroke-dasharray:none;marker-end:url(#Arrow1Mend)"
         d="m 117.15149,156.68928 c 9.26535,13.11403 0,24.51753 0,24.51753"
         id="path5081"
         inkscape:connector-curvature="0" />
    </g>
  </g>
</svg>
