<?xml version="1.0" encoding="UTF-8" standalone="no"?>
<!-- Created with Inkscape (http://www.inkscape.org/) -->

<svg
   xmlns:dc="http://purl.org/dc/elements/1.1/"
   xmlns:cc="http://creativecommons.org/ns#"
   xmlns:rdf="http://www.w3.org/1999/02/22-rdf-syntax-ns#"
   xmlns:svg="http://www.w3.org/2000/svg"
   xmlns="http://www.w3.org/2000/svg"
   xmlns:sodipodi="http://sodipodi.sourceforge.net/DTD/sodipodi-0.dtd"
   xmlns:inkscape="http://www.inkscape.org/namespaces/inkscape"
   width="210mm"
   height="40mm"
   viewBox="0 0 168 31.999996"
   version="1.1"
   id="svg14337"
   inkscape:version="0.91 r13725"
   sodipodi:docname="before_FINAL.svg">
  <defs
     id="defs14331" />
  <sodipodi:namedview
     id="base"
     pagecolor="#ffffff"
     bordercolor="#666666"
     borderopacity="1.0"
     inkscape:pageopacity="0.0"
     inkscape:pageshadow="2"
     inkscape:zoom="0.7"
     inkscape:cx="309.32227"
     inkscape:cy="244.04669"
     inkscape:document-units="mm"
     inkscape:current-layer="layer1"
     showgrid="false"
     scale-x="0.8"
     inkscape:window-width="1127"
     inkscape:window-height="661"
     inkscape:window-x="535"
     inkscape:window-y="289"
     inkscape:window-maximized="0" />
  <metadata
     id="metadata14334">
    <rdf:RDF>
      <cc:Work
         rdf:about="">
        <dc:format>image/svg+xml</dc:format>
        <dc:type
           rdf:resource="http://purl.org/dc/dcmitype/StillImage" />
        <dc:title></dc:title>
      </cc:Work>
    </rdf:RDF>
  </metadata>
  <g
     inkscape:label="Layer 1"
     inkscape:groupmode="layer"
     id="layer1"
     transform="translate(0,-205.6)">
    <path
       style="opacity:1;fill:#460000;fill-opacity:1;stroke:#070000;stroke-width:0.5;stroke-miterlimit:4;stroke-dasharray:none;stroke-opacity:1"
       d="m 21.34811,215.94692 9.999999,0 0,9.99999 -9.999999,0 z"
       id="rect4489"
       inkscape:connector-curvature="0" />
    <path
       style="opacity:1;fill:#640000;fill-opacity:1;stroke:#070000;stroke-width:0.5;stroke-miterlimit:4;stroke-dasharray:none;stroke-opacity:1"
       d="m 31.348114,215.94692 9.999999,0 0,9.99999 -9.999999,0 z"
       id="rect4489-8"
       inkscape:connector-curvature="0" />
    <path
       style="opacity:1;fill:#820000;fill-opacity:1;stroke:#070000;stroke-width:0.5;stroke-miterlimit:4;stroke-dasharray:none;stroke-opacity:1"
       d="m 41.34811,215.94692 9.999999,0 0,9.99999 -9.999999,0 z"
       id="rect4489-8-3"
       inkscape:connector-curvature="0" />
    <path
       style="opacity:1;fill:#a00000;fill-opacity:1;stroke:#070000;stroke-width:0.5;stroke-miterlimit:4;stroke-dasharray:none;stroke-opacity:1"
       d="m 51.348125,215.94692 9.999999,0 0,9.99999 -9.999999,0 z"
       id="rect4489-8-3-9"
       inkscape:connector-curvature="0" />
    <path
       style="opacity:1;fill:#be0000;fill-opacity:1;stroke:#070000;stroke-width:0.5;stroke-miterlimit:4;stroke-dasharray:none;stroke-opacity:1"
       d="m 61.348114,215.94692 9.999999,0 0,9.99999 -9.999999,0 z"
       id="rect4489-8-3-9-7"
       inkscape:connector-curvature="0" />
    <path
       style="opacity:1;fill:#dc0000;fill-opacity:1;stroke:#070000;stroke-width:0.5;stroke-miterlimit:4;stroke-dasharray:none;stroke-opacity:1"
       d="m 71.34811,215.94692 9.999999,0 0,9.99999 -9.999999,0 z"
       id="rect4489-8-3-9-7-5"
       inkscape:connector-curvature="0" />
    <path
       style="opacity:1;fill:#fa0000;fill-opacity:1;stroke:#070000;stroke-width:0.5;stroke-miterlimit:4;stroke-dasharray:none;stroke-opacity:1"
       d="m 81.348133,215.94692 9.999999,0 0,9.99999 -9.999999,0 z"
       id="rect4489-8-3-9-7-5-1"
       inkscape:connector-curvature="0" />
    <path
       style="opacity:1;fill:#ff1919;fill-opacity:1;stroke:#070000;stroke-width:0.5;stroke-miterlimit:4;stroke-dasharray:none;stroke-opacity:1"
       d="m 91.348133,215.94692 9.999997,0 0,9.99999 -9.999997,0 z"
       id="rect4489-8-3-9-7-5-1-1"
       inkscape:connector-curvature="0" />
    <path
       style="opacity:1;fill:#ff3737;fill-opacity:1;stroke:#070000;stroke-width:0.5;stroke-miterlimit:4;stroke-dasharray:none;stroke-opacity:1"
       d="m 101.34811,215.94692 10,0 0,9.99999 -10,0 z"
       id="rect4489-8-3-9-7-5-1-1-7"
       inkscape:connector-curvature="0" />
    <path
       style="opacity:1;fill:#ff5555;fill-opacity:1;stroke:#070000;stroke-width:0.5;stroke-miterlimit:4;stroke-dasharray:none;stroke-opacity:1"
       d="m 111.34811,215.94692 10,0 0,9.99999 -10,0 z"
       id="rect4489-8-3-9-7-5-1-1-7-3"
       inkscape:connector-curvature="0" />
    <path
       style="opacity:1;fill:#ff7373;fill-opacity:1;stroke:#070000;stroke-width:0.5;stroke-miterlimit:4;stroke-dasharray:none;stroke-opacity:1"
       d="m 121.34811,215.94692 10,0 0,9.99999 -10,0 z"
       id="rect4489-8-3-9-7-5-1-1-7-3-1"
       inkscape:connector-curvature="0" />
    <path
       style="opacity:1;fill:#ff9191;fill-opacity:1;stroke:#070000;stroke-width:0.5;stroke-miterlimit:4;stroke-dasharray:none;stroke-opacity:1"
       d="m 131.34804,215.94692 10,0 0,9.99999 -10,0 z"
       id="rect4489-8-3-9-7-5-1-1-7-3-1-0"
       inkscape:connector-curvature="0" />
    <path
       style="opacity:1;fill:#ffafaf;fill-opacity:1;stroke:#070000;stroke-width:0.5;stroke-miterlimit:4;stroke-dasharray:none;stroke-opacity:1"
       d="m 141.34798,215.94692 10,0 0,9.99999 -10,0 z"
       id="rect4489-8-3-9-7-5-1-1-7-3-1-0-9"
       inkscape:connector-curvature="0" />
    <path
       style="opacity:1;fill:#ffcdcd;fill-opacity:1;stroke:#070000;stroke-width:0.5;stroke-miterlimit:4;stroke-dasharray:none;stroke-opacity:1"
       d="m 151.34798,215.94692 10,0 0,9.99999 -10,0 z"
       id="rect4489-8-3-9-7-5-1-1-7-3-1-0-9-9"
       inkscape:connector-curvature="0" />
    <g
       aria-label="1"
       style="font-style:normal;font-weight:normal;font-size:10.58333302px;line-height:1.25;font-family:sans-serif;letter-spacing:0px;word-spacing:0px;fill:#000000;fill-opacity:1;stroke:none;stroke-width:0.26458332"
       id="text6086-2"
       transform="translate(-1.9352381,14.643293)">
      <path
         d="m 37.10826,198.33915 0.852661,0 0,-2.94298 -0.927592,0.18604 0,-0.47542 0.922424,-0.18604 0.521932,0 0,3.4184 0.852661,0 0,0.43925 -2.222086,0 z"
         style="font-size:5.29166651px;stroke-width:0.26458332"
         id="path5941"
         inkscape:connector-curvature="0" />
    </g>
    <g
       aria-label="2"
       style="font-style:normal;font-weight:normal;font-size:10.58333302px;line-height:1.25;font-family:sans-serif;letter-spacing:0px;word-spacing:0px;fill:#000000;fill-opacity:1;stroke:none;stroke-width:0.26458332"
       id="text6086-2-8"
       transform="translate(-1.9352381,14.643293)">
      <path
         d="m 47.467411,198.33915 1.821594,0 0,0.43925 -2.449463,0 0,-0.43925 q 0.29714,-0.30748 0.808737,-0.82424 0.51418,-0.51935 0.645955,-0.66921 0.250631,-0.28164 0.348816,-0.47543 0.100769,-0.19637 0.100769,-0.38498 0,-0.30748 -0.217041,-0.50127 -0.214457,-0.19378 -0.560689,-0.19378 -0.245463,0 -0.519349,0.0853 -0.271301,0.0853 -0.581359,0.25839 l 0,-0.5271 q 0.315226,-0.12661 0.589111,-0.19121 0.273885,-0.0646 0.501261,-0.0646 0.599447,0 0.956014,0.29972 0.356568,0.29972 0.356568,0.80099 0,0.23771 -0.09043,0.45216 -0.08785,0.21188 -0.322978,0.50127 -0.06459,0.0749 -0.410827,0.43408 -0.346233,0.35657 -0.976685,0.99994 z"
         style="font-size:5.29166651px;stroke-width:0.26458332"
         id="path5938"
         inkscape:connector-curvature="0" />
    </g>
    <g
       aria-label="..."
       style="font-style:normal;font-weight:normal;font-size:10.58333302px;line-height:1.25;font-family:sans-serif;letter-spacing:0px;word-spacing:0px;fill:#000000;fill-opacity:1;stroke:none;stroke-width:0.26458332"
       id="text6086-2-8-4"
       transform="translate(-1.9352381,14.643293)">
      <path
         d="m 56.533325,198.12211 0.545187,0 0,0.65629 -0.545187,0 z"
         style="font-size:5.29166651px;stroke-width:0.26458332"
         id="path5931"
         inkscape:connector-curvature="0" />
      <path
         d="m 58.217977,198.12211 0.545186,0 0,0.65629 -0.545186,0 z"
         style="font-size:5.29166651px;stroke-width:0.26458332"
         id="path5933"
         inkscape:connector-curvature="0" />
      <path
         d="m 59.902628,198.12211 0.545187,0 0,0.65629 -0.545187,0 z"
         style="font-size:5.29166651px;stroke-width:0.26458332"
         id="path5935"
         inkscape:connector-curvature="0" />
    </g>
    <g
       aria-label="t=0"
       style="font-style:normal;font-weight:normal;font-size:10.58333302px;line-height:1.25;font-family:sans-serif;letter-spacing:0px;word-spacing:0px;fill:#000000;fill-opacity:1;stroke:none;stroke-width:0.26458332"
       id="text6086-2-3"
       transform="translate(-1.9352381,14.643293)">
      <path
         d="m 20.860142,194.98793 0,0.82165 0.979268,0 0,0.36949 -0.979268,0 0,1.57096 q 0,0.35398 0.0956,0.45475 0.09819,0.10077 0.395325,0.10077 l 0.488342,0 0,0.39791 -0.488342,0 q -0.550354,0 -0.759644,-0.20412 -0.209289,-0.20671 -0.209289,-0.74931 l 0,-1.57096 -0.348816,0 0,-0.36949 0.348816,0 0,-0.82165 z"
         style="font-size:5.29166651px;stroke-width:0.26458332"
         id="path5924"
         inkscape:connector-curvature="0" />
      <path
         d="m 22.529291,196.30051 3.312459,0 0,0.43408 -3.312459,0 z m 0,1.0542 3.312459,0 0,0.43925 -3.312459,0 z"
         style="font-size:5.29166651px;stroke-width:0.26458332"
         id="path5926"
         inkscape:connector-curvature="0" />
      <path
         d="m 28.084507,195.18946 q -0.403076,0 -0.607198,0.39791 -0.201538,0.39533 -0.201538,1.19114 0,0.79324 0.201538,1.19115 0.204122,0.39532 0.607198,0.39532 0.40566,0 0.607198,-0.39532 0.204122,-0.39791 0.204122,-1.19115 0,-0.79581 -0.204122,-1.19114 -0.201538,-0.39791 -0.607198,-0.39791 z m 0,-0.41341 q 0.648539,0 0.989604,0.51418 0.343648,0.5116 0.343648,1.48828 0,0.9741 -0.343648,1.48828 -0.341065,0.5116 -0.989604,0.5116 -0.648539,0 -0.992188,-0.5116 -0.341064,-0.51418 -0.341064,-1.48828 0,-0.97668 0.341064,-1.48828 0.343649,-0.51418 0.992188,-0.51418 z"
         style="font-size:5.29166651px;stroke-width:0.26458332"
         id="path5928"
         inkscape:connector-curvature="0" />
    </g>
    <g
       aria-label="T-1"
       style="font-style:normal;font-weight:normal;font-size:10.58333302px;line-height:1.25;font-family:sans-serif;letter-spacing:0px;word-spacing:0px;fill:#000000;fill-opacity:1;stroke:none;stroke-width:0.26458332"
       id="text6086-2-3-3"
       transform="translate(-1.9352381,14.643293)">
      <path
         d="m 154.34773,194.92075 3.26337,0 0,0.43925 -1.36943,0 0,3.4184 -0.52451,0 0,-3.4184 -1.36943,0 z"
         style="font-size:5.29166651px;stroke-width:0.26458332"
         id="path5917"
         inkscape:connector-curvature="0" />
      <path
         d="m 157.3708,197.117 1.39268,0 0,0.42375 -1.39268,0 z"
         style="font-size:5.29166651px;stroke-width:0.26458332"
         id="path5919"
         inkscape:connector-curvature="0" />
      <path
         d="m 159.68074,198.33915 0.85266,0 0,-2.94298 -0.92759,0.18604 0,-0.47542 0.92242,-0.18604 0.52194,0 0,3.4184 0.85266,0 0,0.43925 -2.22209,0 z"
         style="font-size:5.29166651px;stroke-width:0.26458332"
         id="path5921"
         inkscape:connector-curvature="0" />
    </g>
    <g
       aria-label="n=0"
       style="font-style:normal;font-weight:normal;font-size:10.58333302px;line-height:1.25;font-family:sans-serif;letter-spacing:0px;word-spacing:0px;fill:#000000;fill-opacity:1;stroke:none;stroke-width:0.26458332"
       id="text6086-2-3-5"
       transform="translate(-1.9352381,14.643293)">
      <path
         d="m 11.398612,206.95678 0,1.74667 -0.475424,0 0,-1.73116 q 0,-0.41083 -0.160196,-0.61495 -0.160197,-0.20413 -0.480591,-0.20413 -0.3849897,0 -0.6071983,0.24547 -0.2222087,0.24546 -0.2222087,0.66921 l 0,1.63556 -0.478007,0 0,-2.89388 0.478007,0 0,0.44958 q 0.1705322,-0.26097 0.4004923,-0.39016 0.2325437,-0.12919 0.5348507,-0.12919 0.498678,0 0.754476,0.31006 0.255799,0.30748 0.255799,0.90692 z"
         style="font-size:5.29166651px;stroke-width:0.26458332"
         id="path5962"
         inkscape:connector-curvature="0" />
      <path
         d="m 12.414054,206.30049 3.312459,0 0,0.43408 -3.312459,0 z m 0,1.0542 3.312459,0 0,0.43925 -3.312459,0 z"
         style="font-size:5.29166651px;stroke-width:0.26458332"
         id="path5964"
         inkscape:connector-curvature="0" />
      <path
         d="m 17.96927,205.18945 q -0.403076,0 -0.607198,0.39791 -0.201538,0.39532 -0.201538,1.19114 0,0.79323 0.201538,1.19114 0.204122,0.39532 0.607198,0.39532 0.40566,0 0.607198,-0.39532 0.204122,-0.39791 0.204122,-1.19114 0,-0.79582 -0.204122,-1.19114 -0.201538,-0.39791 -0.607198,-0.39791 z m 0,-0.41341 q 0.648539,0 0.989603,0.51418 0.343649,0.51159 0.343649,1.48828 0,0.9741 -0.343649,1.48828 -0.341064,0.5116 -0.989603,0.5116 -0.64854,0 -0.992188,-0.5116 -0.341064,-0.51418 -0.341064,-1.48828 0,-0.97669 0.341064,-1.48828 0.343648,-0.51418 0.992188,-0.51418 z"
         style="font-size:5.29166651px;stroke-width:0.26458332"
         id="path5966"
         inkscape:connector-curvature="0" />
    </g>
    <flowRoot
       xml:space="preserve"
       id="flowRoot5909"
       style="font-style:normal;font-weight:normal;font-size:40px;line-height:1.25;font-family:sans-serif;letter-spacing:0px;word-spacing:0px;fill:#000000;fill-opacity:1;stroke:none"><flowRegion
         id="flowRegion5911"><rect
           id="rect5913"
           width="864.28571"
           height="290"
           x="-67.14286"
           y="-27.514061" /></flowRegion><flowPara
         id="flowPara5915" /></flowRoot>    <path
       style="fill:none;stroke:#464646;stroke-width:1.33233178;stroke-linecap:round;stroke-linejoin:miter;stroke-miterlimit:4;stroke-dasharray:none;stroke-opacity:1"
       d="m 9.2343141,231.66183 140.8991259,0"
       id="path8559"
       inkscape:connector-curvature="0" />
    <path
       inkscape:connector-curvature="0"
       d="m 155.50854,231.11417 q -0.0971,-0.0455 -0.19431,-0.0662 -0.0951,-0.0227 -0.19223,-0.0227 -0.28525,0 -0.44028,0.18397 -0.15296,0.18191 -0.15296,0.52297 l 0,1.0666 -0.74001,0 0,-2.3151 0.74001,0 0,0.38033 q 0.14262,-0.22737 0.32659,-0.33073 0.18604,-0.10541 0.44441,-0.10541 0.0372,0 0.0806,0.004 0.0434,0.002 0.1261,0.0124 z"
       style="font-style:normal;font-variant:normal;font-weight:bold;font-stretch:normal;font-size:5.29166651px;line-height:1.25;font-family:sans-serif;-inkscape-font-specification:'sans-serif Bold';letter-spacing:0px;word-spacing:0px;fill:#464646;fill-opacity:1;stroke:none;stroke-width:0.26458332"
       id="path6823" />
    <path
       inkscape:connector-curvature="0"
       d="m 158.19158,231.63507 0,0.21084 -1.73013,0 q 0.0269,0.26045 0.1881,0.39067 0.16124,0.13023 0.45062,0.13023 0.23358,0 0.47749,-0.0682 0.24598,-0.0702 0.50437,-0.21084 l 0,0.57051 q -0.26252,0.0992 -0.52503,0.14883 -0.26253,0.0517 -0.52504,0.0517 -0.62839,0 -0.97772,-0.31833 -0.34726,-0.32039 -0.34726,-0.8971 0,-0.56637 0.34106,-0.8909 0.34313,-0.32453 0.94258,-0.32453 0.5457,0 0.87229,0.32866 0.32867,0.32866 0.32867,0.8785 z m -0.76068,-0.24598 q 0,-0.21084 -0.12403,-0.339 -0.12195,-0.13022 -0.32039,-0.13022 -0.21497,0 -0.34933,0.12195 -0.13436,0.11989 -0.16743,0.34727 z"
       style="font-style:normal;font-variant:normal;font-weight:bold;font-stretch:normal;font-size:5.29166651px;line-height:1.25;font-family:sans-serif;-inkscape-font-specification:'sans-serif Bold';letter-spacing:0px;word-spacing:0px;fill:#464646;fill-opacity:1;stroke:none;stroke-width:0.26458332"
       id="path6825" />
    <path
       inkscape:connector-curvature="0"
       d="m 160.55837,230.55606 0,0.56224 q -0.23772,-0.0992 -0.4589,-0.14882 -0.22117,-0.0496 -0.41754,-0.0496 -0.21084,0 -0.3142,0.0538 -0.10128,0.0517 -0.10128,0.16122 0,0.0889 0.0765,0.13643 0.0786,0.0475 0.27905,0.0703 l 0.13023,0.0186 q 0.56844,0.0723 0.76481,0.23772 0.19637,0.16536 0.19637,0.51883 0,0.37 -0.27285,0.55604 -0.27286,0.18603 -0.81442,0.18603 -0.22944,0 -0.47543,-0.0372 -0.24391,-0.0351 -0.5023,-0.10749 l 0,-0.56224 q 0.22118,0.10749 0.45269,0.16123 0.23358,0.0538 0.47336,0.0538 0.21704,0 0.32659,-0.0599 0.10956,-0.0599 0.10956,-0.17776 0,-0.0992 -0.0765,-0.14676 -0.0744,-0.0496 -0.29972,-0.0765 l -0.13023,-0.0166 q -0.49403,-0.062 -0.69246,-0.22945 -0.19844,-0.16743 -0.19844,-0.5085 0,-0.36793 0.25218,-0.54569 0.25218,-0.17777 0.77308,-0.17777 0.20463,0 0.42995,0.031 0.22531,0.031 0.4899,0.0971 z"
       style="font-style:normal;font-variant:normal;font-weight:bold;font-stretch:normal;font-size:5.29166651px;line-height:1.25;font-family:sans-serif;-inkscape-font-specification:'sans-serif Bold';letter-spacing:0px;word-spacing:0px;fill:#464646;fill-opacity:1;stroke:none;stroke-width:0.26458332"
       id="path6827" />
    <path
       inkscape:connector-curvature="0"
       d="m 163.58247,231.63507 0,0.21084 -1.73013,0 q 0.0269,0.26045 0.18811,0.39067 0.16122,0.13023 0.45061,0.13023 0.23358,0 0.47749,-0.0682 0.24598,-0.0702 0.50436,-0.21084 l 0,0.57051 q -0.26251,0.0992 -0.52503,0.14883 -0.26251,0.0517 -0.52503,0.0517 -0.62839,0 -0.97772,-0.31833 -0.34727,-0.32039 -0.34727,-0.8971 0,-0.56637 0.34107,-0.8909 0.34313,-0.32453 0.94258,-0.32453 0.5457,0 0.8723,0.32866 0.32866,0.32866 0.32866,0.8785 z m -0.76068,-0.24598 q 0,-0.21084 -0.12402,-0.339 -0.12196,-0.13022 -0.32039,-0.13022 -0.21498,0 -0.34934,0.12195 -0.13436,0.11989 -0.16743,0.34727 z"
       style="font-style:normal;font-variant:normal;font-weight:bold;font-stretch:normal;font-size:5.29166651px;line-height:1.25;font-family:sans-serif;-inkscape-font-specification:'sans-serif Bold';letter-spacing:0px;word-spacing:0px;fill:#464646;fill-opacity:1;stroke:none;stroke-width:0.26458332"
       id="path6829" />
    <path
       inkscape:connector-curvature="0"
       d="m 164.94879,229.82639 0,0.65733 0.76275,0 0,0.52917 -0.76275,0 0,0.98184 q 0,0.16124 0.0641,0.21912 0.0641,0.0558 0.25425,0.0558 l 0.38033,0 0,0.52916 -0.63458,0 q -0.43822,0 -0.62218,-0.1819 -0.18191,-0.18397 -0.18191,-0.62218 l 0,-0.98185 -0.36793,0 0,-0.52917 0.36793,0 0,-0.65733 z"
       style="font-style:normal;font-variant:normal;font-weight:bold;font-stretch:normal;font-size:5.29166651px;line-height:1.25;font-family:sans-serif;-inkscape-font-specification:'sans-serif Bold';letter-spacing:0px;word-spacing:0px;fill:#464646;fill-opacity:1;stroke:none;stroke-width:0.26458332"
       id="path6831" />
  </g>
</svg>
