<?xml version="1.0" encoding="UTF-8" standalone="no"?>
<!-- Created with Inkscape (http://www.inkscape.org/) -->

<svg
   xmlns:dc="http://purl.org/dc/elements/1.1/"
   xmlns:cc="http://creativecommons.org/ns#"
   xmlns:rdf="http://www.w3.org/1999/02/22-rdf-syntax-ns#"
   xmlns:svg="http://www.w3.org/2000/svg"
   xmlns="http://www.w3.org/2000/svg"
   xmlns:sodipodi="http://sodipodi.sourceforge.net/DTD/sodipodi-0.dtd"
   xmlns:inkscape="http://www.inkscape.org/namespaces/inkscape"
   width="105mm"
   height="155mm"
   viewBox="0 0 105 155"
   version="1.1"
   id="svg6411"
   inkscape:version="0.92.1 r15371"
   sodipodi:docname="7.svg">
  <defs
     id="defs6405">
    <marker
       inkscape:stockid="Arrow1Send"
       orient="auto"
       refY="0"
       refX="0"
       id="Arrow1Send"
       style="overflow:visible"
       inkscape:isstock="true">
      <path
         id="path4551"
         d="M 0,0 5,-5 -12.5,0 5,5 Z"
         style="fill:#ff0000;fill-opacity:1;fill-rule:evenodd;stroke:#ff0000;stroke-width:1.00000003pt;stroke-opacity:1"
         transform="matrix(-0.2,0,0,-0.2,-1.2,0)"
         inkscape:connector-curvature="0" />
    </marker>
    <marker
       inkscape:stockid="Arrow1Send"
       orient="auto"
       refY="0"
       refX="0"
       id="Arrow1Send-6"
       style="overflow:visible"
       inkscape:isstock="true">
      <path
         inkscape:connector-curvature="0"
         id="path4551-9"
         d="M 0,0 5,-5 -12.5,0 5,5 Z"
         style="fill:#ff0000;fill-opacity:1;fill-rule:evenodd;stroke:#ff0000;stroke-width:1.00000003pt;stroke-opacity:1"
         transform="matrix(-0.2,0,0,-0.2,-1.2,0)" />
    </marker>
    <marker
       inkscape:isstock="true"
       style="overflow:visible"
       id="Arrow1Send-4"
       refX="0"
       refY="0"
       orient="auto"
       inkscape:stockid="Arrow1Send">
      <path
         transform="matrix(-0.2,0,0,-0.2,-1.2,0)"
         style="fill:#ff0000;fill-opacity:1;fill-rule:evenodd;stroke:#ff0000;stroke-width:1.00000003pt;stroke-opacity:1"
         d="M 0,0 5,-5 -12.5,0 5,5 Z"
         id="path4551-3"
         inkscape:connector-curvature="0" />
    </marker>
    <marker
       inkscape:isstock="true"
       style="overflow:visible"
       id="Arrow1Send-6-7"
       refX="0"
       refY="0"
       orient="auto"
       inkscape:stockid="Arrow1Send">
      <path
         transform="matrix(-0.2,0,0,-0.2,-1.2,0)"
         style="fill:#ff0000;fill-opacity:1;fill-rule:evenodd;stroke:#ff0000;stroke-width:1.00000003pt;stroke-opacity:1"
         d="M 0,0 5,-5 -12.5,0 5,5 Z"
         id="path4551-9-9"
         inkscape:connector-curvature="0" />
    </marker>
    <marker
       inkscape:isstock="true"
       style="overflow:visible"
       id="Arrow1Send-3"
       refX="0"
       refY="0"
       orient="auto"
       inkscape:stockid="Arrow1Send">
      <path
         transform="matrix(-0.2,0,0,-0.2,-1.2,0)"
         style="fill:#ff0000;fill-opacity:1;fill-rule:evenodd;stroke:#ff0000;stroke-width:1.00000003pt;stroke-opacity:1"
         d="M 0,0 5,-5 -12.5,0 5,5 Z"
         id="path4551-2"
         inkscape:connector-curvature="0" />
    </marker>
  </defs>
  <sodipodi:namedview
     id="base"
     pagecolor="#ffffff"
     bordercolor="#666666"
     borderopacity="1.0"
     inkscape:pageopacity="0.0"
     inkscape:pageshadow="2"
     inkscape:zoom="0.98994948"
     inkscape:cx="204.20354"
     inkscape:cy="-34.210283"
     inkscape:document-units="mm"
     inkscape:current-layer="layer1-9"
     showgrid="false"
     inkscape:window-width="1027"
     inkscape:window-height="689"
     inkscape:window-x="566"
     inkscape:window-y="205"
     inkscape:window-maximized="0" />
  <metadata
     id="metadata6408">
    <rdf:RDF>
      <cc:Work
         rdf:about="">
        <dc:format>image/svg+xml</dc:format>
        <dc:type
           rdf:resource="http://purl.org/dc/dcmitype/StillImage" />
        <dc:title />
      </cc:Work>
    </rdf:RDF>
  </metadata>
  <g
     inkscape:label="Layer 1"
     inkscape:groupmode="layer"
     id="layer1"
     transform="translate(-56.648093,-73.45448)">
    <g
       id="layer1-9"
       inkscape:label="Layer 1"
       transform="translate(44.449991,67.506541)"
       inkscape:export-xdpi="50.099998"
       inkscape:export-ydpi="50.099998">
      <path
         inkscape:connector-curvature="0"
         id="path3715"
         d="M 18.888754,122.11718 H 49.127026 L 100.53187,100.60381 107.33545,78.293653 92.972338,35.266932 50.638934,31.282961 36.275764,41.641254 Z"
         style="fill:none;stroke:#000000;stroke-width:0.27163616px;stroke-linecap:butt;stroke-linejoin:miter;stroke-opacity:1" />
      <path
         inkscape:connector-curvature="0"
         id="path4528"
         d="M 18.888754,122.11718 H 49.127026"
         style="fill:#ff0000;stroke:#000000;stroke-width:2;stroke-linecap:butt;stroke-linejoin:miter;stroke-miterlimit:4;stroke-dasharray:none;stroke-opacity:1" />
      <path
         inkscape:connector-curvature="0"
         id="path4534"
         d="m 35.298384,138.76184 0.22142,-29.61579"
         style="fill:none;stroke:#ff0000;stroke-width:2;stroke-linecap:butt;stroke-linejoin:miter;stroke-miterlimit:4;stroke-dasharray:none;stroke-opacity:1;marker-end:url(#Arrow1Send-3)"
         sodipodi:nodetypes="cc" />
      <g
         aria-label="S"
         transform="matrix(0.26458333,0,0,0.26458333,67.345558,81.945451)"
         style="font-style:normal;font-weight:normal;font-size:40px;line-height:1.25;font-family:sans-serif;letter-spacing:0px;word-spacing:0px;fill:#000000;fill-opacity:1;stroke:none"
         id="flowRoot5184">
        <path
           d="m 68.530598,125.26432 v 7.1823 q -4.192709,-2.00521 -7.911458,-2.98959 -3.71875,-0.98437 -7.182292,-0.98437 -6.015625,0 -9.296875,2.33333 -3.244791,2.33333 -3.244791,6.63542 0,3.60937 2.151041,5.46875 2.1875,1.82291 8.239584,2.95312 l 4.447916,0.91146 q 8.239583,1.56771 12.140625,5.54167 3.937499,3.9375 3.937499,10.57291 0,7.91146 -5.322916,11.99479 -5.286458,4.08334 -15.531249,4.08334 -3.864584,0 -8.239584,-0.875 -4.338541,-0.875 -9.005208,-2.58854 v -7.58334 q 4.484375,2.51563 8.786458,3.79167 4.302084,1.27604 8.458334,1.27604 6.307291,0 9.734374,-2.47917 3.427083,-2.47916 3.427083,-7.07291 0,-4.01042 -2.479166,-6.27083 -2.442708,-2.26042 -8.057292,-3.39063 l -4.484374,-0.875 q -8.239583,-1.64062 -11.921875,-5.14062 -3.682292,-3.5 -3.682292,-9.73438 0,-7.21875 5.067709,-11.375 5.104166,-4.15625 14.036457,-4.15625 3.828125,0 7.802084,0.69271 3.973958,0.69271 8.130208,2.07812 z"
           style="font-size:74.66666412px;line-height:0"
           id="path4538" />
      </g>
      <g
         aria-label="P"
         transform="matrix(0.26458333,0,0,0.26458333,5.3452912,36.013069)"
         style="font-style:normal;font-weight:normal;font-size:40px;line-height:1.25;font-family:sans-serif;letter-spacing:0px;word-spacing:0px;fill:#000000;fill-opacity:1;stroke:none"
         id="flowRoot5184-2">
        <path
           d="m 43.264973,129.52995 v 20.45312 h 9.260417 q 5.140625,0 7.947916,-2.66145 2.807292,-2.66146 2.807292,-7.58334 0,-4.88541 -2.807292,-7.54687 -2.807291,-2.66146 -7.947916,-2.66146 z m -7.364583,-6.05208 h 16.625 q 9.151041,0 13.817708,4.15625 4.703125,4.11979 4.703125,12.10416 0,8.05729 -4.703125,12.17709 -4.666667,4.11979 -13.817708,4.11979 h -9.260417 v 21.875 H 35.90039 Z"
           style="font-size:74.66666412px;line-height:0"
           id="path4544" />
      </g>
      <g
         aria-label="R"
         transform="matrix(0.26458333,0,0,0.26458333,95.520974,11.88849)"
         style="font-style:normal;font-weight:normal;font-size:40px;line-height:1.25;font-family:sans-serif;letter-spacing:0px;word-spacing:0px;fill:#000000;fill-opacity:1;stroke:none"
         id="flowRoot5184-7">
        <path
           d="m 61.712889,152.38932 q 2.369792,0.80209 4.59375,3.42709 2.260417,2.625 4.520834,7.21875 l 7.473958,14.875 h -7.911458 l -6.963542,-13.96354 q -2.697916,-5.46875 -5.25,-7.25521 -2.515625,-1.78646 -6.890624,-1.78646 h -8.020834 v 23.00521 H 35.90039 v -54.43229 h 16.625 q 9.333333,0 13.927083,3.90104 4.59375,3.90104 4.59375,11.77604 0,5.14062 -2.40625,8.53125 -2.369792,3.39062 -6.927084,4.70312 z M 43.264973,129.52995 v 19.32292 h 9.260417 q 5.322916,0 8.020833,-2.44271 2.734375,-2.47917 2.734375,-7.25521 0,-4.77604 -2.734375,-7.18229 -2.697917,-2.44271 -8.020833,-2.44271 z"
           style="font-size:74.66666412px;line-height:0"
           id="path4535" />
      </g>
      <g
         aria-label="L"
         transform="matrix(0.26458333,0,0,0.26458333,60.326304,-19.54966)"
         style="font-style:normal;font-weight:normal;font-size:40px;line-height:1.25;font-family:sans-serif;letter-spacing:0px;word-spacing:0px;fill:#000000;fill-opacity:1;stroke:none"
         id="flowRoot5184-7-4">
        <path
           d="m 35.90039,123.47787 h 7.364583 v 48.23437 h 26.505208 v 6.19792 H 35.90039 Z"
           style="font-size:74.66666412px;line-height:0"
           id="path4532" />
      </g>
      <g
         aria-label="B"
         transform="matrix(0.26458333,0,0,0.26458333,21.394508,109.64252)"
         style="font-style:normal;font-weight:normal;font-size:40px;line-height:1.25;font-family:sans-serif;letter-spacing:0px;word-spacing:0px;fill:#000000;fill-opacity:1;stroke:none"
         id="flowRoot5184-7-3">
        <path
           d="m 43.264973,151.91537 v 19.9427 h 11.8125 q 5.942708,0 8.786458,-2.44271 2.880208,-2.47916 2.880208,-7.54687 0,-5.10417 -2.880208,-7.51042 -2.84375,-2.4427 -8.786458,-2.4427 z m 0,-22.38542 v 16.40625 h 10.901042 q 5.395833,0 8.020833,-2.00521 2.661458,-2.04167 2.661458,-6.19792 0,-4.11979 -2.661458,-6.16145 -2.625,-2.04167 -8.020833,-2.04167 z m -7.364583,-6.05208 h 18.8125 q 8.421874,0 12.979166,3.5 4.557291,3.5 4.557291,9.95312 0,4.99479 -2.333333,7.94792 -2.333333,2.95312 -6.854166,3.68229 5.432291,1.16667 8.421874,4.88542 3.026042,3.68229 3.026042,9.22395 0,7.29167 -4.958333,11.26563 -4.958333,3.97396 -14.109375,3.97396 H 35.90039 Z"
           style="font-size:74.66666412px;line-height:0"
           id="path4541"
           inkscape:connector-curvature="0" />
      </g>
      <g
         aria-label="F"
         transform="matrix(0.26458333,0,0,0.26458333,24.617561,-13.048508)"
         style="font-style:normal;font-weight:normal;font-size:40px;line-height:1.25;font-family:sans-serif;letter-spacing:0px;word-spacing:0px;fill:#000000;fill-opacity:1;stroke:none"
         id="flowRoot5184-7-3-1">
        <path
           d="m 35.90039,123.47787 h 31.281249 v 6.19791 H 43.264973 v 16.04167 h 21.583333 v 6.19792 H 43.264973 v 25.99479 H 35.90039 Z"
           style="font-size:74.66666412px;line-height:0"
           id="path4529" />
      </g>
    </g>
  </g>
</svg>
